<svg xmlns="http://www.w3.org/2000/svg" xmlns:xlink="http://www.w3.org/1999/xlink" viewBox="0 0 2048 2051"><defs><style>.cls-1{fill:none;}.cls-2{fill:url(#linear-gradient);}.cls-3{fill:url(#linear-gradient-2);}.cls-4{fill:url(#linear-gradient-3);}.cls-5{clip-path:url(#clip-path);}.cls-6{fill:url(#linear-gradient-4);}.cls-7{fill:url(#linear-gradient-5);}.cls-8{clip-path:url(#clip-path-2);}.cls-9{fill:url(#linear-gradient-6);}.cls-10{fill:url(#linear-gradient-7);}.cls-11{fill:url(#linear-gradient-8);}.cls-12{fill:url(#linear-gradient-9);}.cls-13{fill:url(#linear-gradient-10);}.cls-14{fill:url(#linear-gradient-11);}.cls-15{clip-path:url(#clip-path-3);}.cls-16{fill:url(#linear-gradient-12);}.cls-17{fill:url(#linear-gradient-13);}.cls-18{clip-path:url(#clip-path-4);}.cls-19{fill:url(#linear-gradient-14);}.cls-20{fill:url(#linear-gradient-15);}.cls-21{fill:url(#linear-gradient-16);}.cls-22{fill:url(#linear-gradient-17);}.cls-23{fill:url(#linear-gradient-18);}.cls-24{fill:url(#linear-gradient-19);}.cls-25{clip-path:url(#clip-path-5);}.cls-26{fill:url(#linear-gradient-20);}.cls-27{fill:url(#linear-gradient-21);}.cls-28{clip-path:url(#clip-path-6);}.cls-29{fill:url(#linear-gradient-22);}.cls-30{fill:url(#linear-gradient-23);}.cls-31{fill:url(#linear-gradient-24);}.cls-32{fill:url(#linear-gradient-25);}.cls-33{fill:url(#linear-gradient-26);}.cls-34{fill:url(#linear-gradient-27);}.cls-35{clip-path:url(#clip-path-7);}.cls-36{fill:url(#linear-gradient-28);}.cls-37{fill:url(#linear-gradient-29);}.cls-38{clip-path:url(#clip-path-8);}.cls-39{fill:url(#linear-gradient-30);}.cls-40{fill:url(#linear-gradient-31);}.cls-41{fill:url(#linear-gradient-32);}</style><linearGradient id="linear-gradient" x1="2571" y1="-2126" x2="2571" y2="-3127.76" gradientTransform="translate(-2059 4177)" gradientUnits="userSpaceOnUse"><stop offset="0" stop-color="#e1ecf8"/><stop offset="1" stop-color="#fff"/></linearGradient><linearGradient id="linear-gradient-2" x1="3443.28" y1="-2595.56" x2="1843.93" y2="-2595.56" gradientTransform="translate(-2059 4177)" gradientUnits="userSpaceOnUse"><stop offset="0" stop-color="#5e147d"/><stop offset="1" stop-color="#39d5ff"/></linearGradient><linearGradient id="linear-gradient-3" x1="1574.07" y1="-2705.33" x2="1187.47" y2="-3431.59" gradientTransform="matrix(0.9, 0.01, -0.03, 0.94, -1020.06, 4145.11)" gradientUnits="userSpaceOnUse"><stop offset="0" stop-color="#03448c"/><stop offset="1" stop-color="#17ffc6"/></linearGradient><clipPath id="clip-path"><path class="cls-1" d="M595,1246.63s-32.84-88.61-196.36-91.34-268.88,47-350.67,165.08c0,0,105.06,9,118.62,114.73Z"/></clipPath><linearGradient id="linear-gradient-4" x1="2029.07" y1="-1786.97" x2="2774.1" y2="-2932.68" xlink:href="#linear-gradient-2"/><linearGradient id="linear-gradient-5" x1="1987.74" y1="-1647.42" x2="2791.53" y2="-2883.51" gradientTransform="translate(-2059 4177)" xlink:href="#linear-gradient-3"/><clipPath id="clip-path-2"><path class="cls-1" d="M811.36,1629a143.5,143.5,0,0,1-4.5-14.35c-4-17.1,5-22.91,15-22.67,13.41.33,25.55,9.72,67.78,3.41,0-.12,0-.24.07-.36h.07c.68-4.06,1.25-8.14,1.76-12.25.13-1,.21-2.08.33-3.12q.64-5.82,1-11.68c.1-1.37.19-2.74.26-4.11.26-4.87.44-9.76.44-14.69,0-103.64-57.83-195.8-147.54-254.41-63.49-41.36-142.9-65.93-229-65.93-69.39,0-134.41,16-190.25,43.76a1.46,1.46,0,0,0-.33.22c-48.87,45.51-101.88,135.26-28.64,286.88a1.31,1.31,0,0,1-.29,1.54c-8.09,7.4-81.14,78.88-44.79,216.55a1.33,1.33,0,0,0,.43.68q1.94,1.61,3.88,3.2c.93.75,1.86,1.5,2.8,2.24l.46.37,3,2.35,2.09,1.59q4.54,3.45,9.21,6.78,1.91,1.37,3.82,2.7,5.87,4.08,11.91,8l.89.58c4.24,2.7,8.57,5.29,12.94,7.83,1.34.78,2.68,1.53,4,2.29q5.15,2.91,10.42,5.68c1.21.64,2.41,1.29,3.63,1.92q6.86,3.51,13.89,6.79c1,.48,2.06.92,3.09,1.39q5.74,2.61,11.61,5.06c1.48.61,2.95,1.22,4.44,1.82q6.33,2.55,12.78,4.91c.75.27,1.48.57,2.23.84,5,1.79,10.06,3.47,15.17,5.08,1.41.45,2.83.87,4.25,1.3q6,1.81,12,3.46c1.44.39,2.87.8,4.31,1.17,5.26,1.37,10.56,2.67,15.91,3.84.7.16,1.41.29,2.12.44q7.08,1.52,14.27,2.8l4.82.83q6.68,1.13,13.44,2c1.14.16,2.28.34,3.42.48q8.33,1.07,16.75,1.81c1.38.13,2.76.22,4.14.33q6.68.53,13.4.86c1.64.08,3.27.17,4.91.23,5.76.22,11.54.37,17.36.37s11.59-.15,17.35-.37c1.64-.06,3.28-.15,4.92-.23q6.72-.33,13.39-.86c1.38-.11,2.77-.2,4.14-.33q8.43-.75,16.75-1.81c1.15-.14,2.28-.32,3.42-.48q6.76-.91,13.45-2l4.82-.83q7.19-1.29,14.26-2.8c.71-.15,1.42-.28,2.12-.44,5.36-1.17,10.65-2.47,15.91-3.84,1.45-.37,2.88-.78,4.31-1.17q6.08-1.65,12.05-3.46c1.41-.43,2.84-.85,4.25-1.3,5.1-1.61,10.16-3.29,15.16-5.08.75-.27,1.49-.57,2.24-.84q6.45-2.36,12.77-4.91,2.24-.9,4.44-1.82,5.86-2.46,11.61-5.06c1-.47,2.07-.91,3.09-1.39q7-3.27,13.89-6.79c1.22-.63,2.42-1.28,3.64-1.92q5.26-2.76,10.41-5.68c1.35-.76,2.7-1.51,4-2.29,4.38-2.54,8.71-5.13,12.94-7.83l.89-.58c4-2.58,8-5.24,11.92-8,1.28-.89,2.54-1.79,3.81-2.7q4.68-3.33,9.21-6.78c1.08-.82,2.18-1.63,3.25-2.46q5.81-4.53,11.41-9.26c.94-.79,1.84-1.61,2.77-2.41q4.35-3.75,8.54-7.62,1.75-1.61,3.48-3.24,4.51-4.27,8.85-8.69c.57-.58,1.17-1.15,1.74-1.74,3.34-3.45,6.58-7,9.75-10.55,1-1.12,2-2.25,2.94-3.38q3.51-4.07,6.86-8.21c.93-1.15,1.87-2.28,2.77-3.44q4.39-5.58,8.53-11.3c.56-.78,1.08-1.58,1.63-2.37q3.36-4.77,6.52-9.64,1.29-2,2.53-4,3-4.71,5.73-9.51c.57-1,1.17-2,1.73-3,.13-.23.27-.45.39-.68l0,0a.25.25,0,0,1,0-.07C837.4,1669.23,818.68,1648.33,811.36,1629Z"/></clipPath><linearGradient id="linear-gradient-6" x1="2365.64" y1="-2733.78" x2="2365.64" y2="-1984.79" xlink:href="#linear-gradient-2"/><linearGradient id="linear-gradient-7" x1="2618.7" y1="-2587.25" x2="2087.83" y2="-2587.25" gradientTransform="translate(-2059 4177)" xlink:href="#linear-gradient-3"/><linearGradient id="linear-gradient-8" x1="2704" y1="-2798.83" x2="2704" y2="-2394.92" gradientTransform="translate(-2059 4177)" gradientUnits="userSpaceOnUse"><stop offset="0" stop-color="#fff"/><stop offset="0.37" stop-color="#edf1ff"/><stop offset="0.57" stop-color="#b6d6e0"/><stop offset="0.76" stop-color="#a8d4f7"/></linearGradient><linearGradient id="linear-gradient-9" x1="11640" y1="2051" x2="11640" y2="1049.24" gradientTransform="matrix(-1, 0, 0, 1, 13170, 0)" xlink:href="#linear-gradient"/><linearGradient id="linear-gradient-10" x1="6440.28" y1="1581.44" x2="4840.93" y2="1581.44" gradientTransform="translate(-4038)" xlink:href="#linear-gradient-2"/><linearGradient id="linear-gradient-11" x1="5040.38" y1="1671.14" x2="4653.77" y2="944.88" gradientTransform="matrix(0.9, 0.01, -0.03, 0.94, -2999.06, -31.89)" gradientUnits="userSpaceOnUse"><stop offset="0" stop-color="#f5240a"/><stop offset="1" stop-color="#f7cd37"/></linearGradient><clipPath id="clip-path-3"><path class="cls-1" d="M1613,1246.63s-32.84-88.61-196.36-91.34-268.88,47-350.67,165.08c0,0,105.06,9,118.62,114.73Z"/></clipPath><linearGradient id="linear-gradient-12" x1="5026.07" y1="2390.03" x2="5771.1" y2="1244.32" gradientTransform="translate(-4038)" xlink:href="#linear-gradient-2"/><linearGradient id="linear-gradient-13" x1="4984.74" y1="2529.58" x2="5788.53" y2="1293.49" gradientTransform="translate(-4038)" xlink:href="#linear-gradient-11"/><clipPath id="clip-path-4"><path class="cls-1" d="M1829.36,1629a143.5,143.5,0,0,1-4.5-14.35c-3.95-17.1,5-22.91,15-22.67,13.41.33,25.55,9.72,67.78,3.41,0-.12.05-.24.07-.36h.07c.68-4.06,1.25-8.14,1.76-12.25.13-1,.21-2.08.33-3.12q.64-5.82,1-11.68c.1-1.37.19-2.74.26-4.11.26-4.87.44-9.76.44-14.69,0-103.64-57.83-195.8-147.54-254.41-63.49-41.36-142.9-65.93-229-65.93-69.39,0-134.41,16-190.25,43.76a1.46,1.46,0,0,0-.33.22c-48.87,45.51-101.88,135.26-28.64,286.88a1.31,1.31,0,0,1-.29,1.54c-8.09,7.4-81.14,78.88-44.79,216.55a1.33,1.33,0,0,0,.43.68q1.93,1.61,3.88,3.2c.93.75,1.86,1.5,2.8,2.24l.46.37,3,2.35,2.09,1.59q4.55,3.45,9.21,6.78,1.9,1.37,3.82,2.7,5.86,4.08,11.91,8l.89.58c4.24,2.7,8.57,5.29,12.94,7.83,1.34.78,2.68,1.53,4,2.29q5.14,2.91,10.42,5.68c1.21.64,2.41,1.29,3.63,1.92q6.85,3.51,13.89,6.79c1,.48,2.06.92,3.09,1.39q5.74,2.61,11.61,5.06c1.48.61,3,1.22,4.44,1.82q6.33,2.55,12.78,4.91c.75.27,1.48.57,2.23.84,5,1.79,10.06,3.47,15.17,5.08,1.41.45,2.83.87,4.25,1.3q6,1.81,12,3.46c1.44.39,2.87.8,4.31,1.17,5.26,1.37,10.56,2.67,15.91,3.84.7.16,1.41.29,2.12.44q7.08,1.52,14.27,2.8l4.82.83q6.67,1.13,13.44,2c1.14.16,2.28.34,3.42.48q8.33,1.07,16.75,1.81c1.38.13,2.76.22,4.14.33q6.67.53,13.4.86c1.64.08,3.27.17,4.91.23,5.76.22,11.54.37,17.36.37s11.59-.15,17.35-.37c1.64-.06,3.28-.15,4.92-.23q6.72-.33,13.39-.86c1.38-.11,2.77-.2,4.14-.33q8.43-.75,16.75-1.81c1.15-.14,2.28-.32,3.42-.48q6.76-.91,13.45-2l4.82-.83q7.18-1.29,14.26-2.8c.71-.15,1.42-.28,2.12-.44,5.36-1.17,10.65-2.47,15.91-3.84,1.45-.37,2.88-.78,4.31-1.17q6.08-1.65,12-3.46c1.41-.43,2.84-.85,4.25-1.3,5.1-1.61,10.16-3.29,15.16-5.08.75-.27,1.49-.57,2.24-.84q6.45-2.36,12.77-4.91,2.23-.9,4.44-1.82,5.87-2.46,11.61-5.06c1-.47,2.07-.91,3.09-1.39q7-3.27,13.89-6.79c1.22-.63,2.42-1.28,3.64-1.92q5.27-2.76,10.41-5.68c1.35-.76,2.7-1.51,4-2.29,4.38-2.54,8.71-5.13,12.94-7.83l.89-.58c4-2.58,8-5.24,11.92-8,1.28-.89,2.54-1.79,3.81-2.7q4.68-3.33,9.21-6.78c1.08-.82,2.18-1.63,3.25-2.46q5.81-4.53,11.41-9.26c.94-.79,1.84-1.61,2.77-2.41q4.35-3.75,8.54-7.62,1.76-1.61,3.48-3.24,4.51-4.27,8.85-8.69c.57-.58,1.17-1.15,1.74-1.74,3.34-3.45,6.58-7,9.75-10.55,1-1.12,2-2.25,2.94-3.38q3.51-4.07,6.86-8.21c.93-1.15,1.87-2.28,2.77-3.44q4.39-5.58,8.53-11.3c.56-.78,1.08-1.58,1.63-2.37q3.36-4.77,6.52-9.64,1.29-2,2.53-4,3-4.71,5.73-9.51c.57-1,1.17-2,1.73-3,.13-.23.27-.45.39-.68l0,0a.25.25,0,0,1,0-.07C1855.4,1669.23,1836.68,1648.33,1829.36,1629Z"/></clipPath><linearGradient id="linear-gradient-14" x1="5362.64" y1="1443.22" x2="5362.64" y2="2192.21" gradientTransform="translate(-4038)" xlink:href="#linear-gradient-2"/><linearGradient id="linear-gradient-15" x1="5615.7" y1="1589.75" x2="5084.83" y2="1589.75" gradientTransform="translate(-4038)" xlink:href="#linear-gradient-11"/><linearGradient id="linear-gradient-16" x1="1663" y1="1378.17" x2="1663" y2="1782.08" gradientTransform="matrix(1, 0, 0, 1, 0, 0)" xlink:href="#linear-gradient-8"/><linearGradient id="linear-gradient-17" x1="506" y1="1031" x2="506" y2="29.24" gradientTransform="matrix(1, 0, 0, 1, 0, 0)" xlink:href="#linear-gradient"/><linearGradient id="linear-gradient-18" x1="1378.28" y1="561.44" x2="-221.07" y2="561.44" gradientTransform="matrix(1, 0, 0, 1, 0, 0)" xlink:href="#linear-gradient-2"/><linearGradient id="linear-gradient-19" x1="-608.37" y1="669.42" x2="-994.98" y2="-56.84" gradientTransform="matrix(0.9, 0.01, -0.03, 0.94, 1038.94, -31.89)" gradientUnits="userSpaceOnUse"><stop offset="0" stop-color="#130cb7"/><stop offset="1" stop-color="#52e5e7"/></linearGradient><clipPath id="clip-path-5"><path class="cls-1" d="M589,226.63S556.11,138,392.59,135.29s-268.88,47-350.67,165.08c0,0,105.06,9,118.62,114.73Z"/></clipPath><linearGradient id="linear-gradient-20" x1="-35.93" y1="1370.03" x2="709.1" y2="224.32" gradientTransform="matrix(1, 0, 0, 1, 0, 0)" xlink:href="#linear-gradient-2"/><linearGradient id="linear-gradient-21" x1="-77.26" y1="1509.58" x2="726.53" y2="273.49" gradientTransform="matrix(1, 0, 0, 1, 0, 0)" xlink:href="#linear-gradient-19"/><clipPath id="clip-path-6"><path class="cls-1" d="M805.36,609a143.5,143.5,0,0,1-4.5-14.35c-4-17.1,5-22.91,15-22.67,13.41.33,25.55,9.72,67.78,3.41,0-.12,0-.24.07-.36h.07c.68-4.06,1.25-8.14,1.76-12.25.13-1,.21-2.08.33-3.12q.64-5.82,1-11.68c.1-1.37.19-2.74.26-4.11.26-4.87.44-9.76.44-14.69,0-103.64-57.83-195.8-147.54-254.41-63.49-41.36-142.9-65.93-229-65.93-69.39,0-134.41,16-190.25,43.76a1.46,1.46,0,0,0-.33.22c-48.87,45.51-101.88,135.26-28.64,286.88a1.31,1.31,0,0,1-.29,1.54c-8.09,7.4-81.14,78.88-44.79,216.55a1.33,1.33,0,0,0,.43.68q1.94,1.6,3.88,3.2c.93.75,1.86,1.5,2.8,2.24l.46.37,3,2.35,2.09,1.59q4.54,3.45,9.21,6.78,1.91,1.37,3.82,2.7,5.87,4.08,11.91,8l.89.58c4.24,2.7,8.57,5.29,12.94,7.83,1.34.78,2.68,1.53,4,2.29q5.15,2.91,10.42,5.68c1.21.64,2.41,1.29,3.63,1.92q6.86,3.51,13.89,6.79c1,.48,2.06.92,3.09,1.39q5.74,2.61,11.61,5.06c1.48.61,2.95,1.22,4.44,1.82q6.33,2.55,12.78,4.91c.75.27,1.48.57,2.23.84,5,1.79,10.06,3.47,15.17,5.08,1.41.45,2.83.87,4.25,1.3q6,1.82,12,3.46c1.44.39,2.87.8,4.31,1.17,5.26,1.37,10.56,2.67,15.91,3.84.7.16,1.41.29,2.12.44q7.08,1.51,14.27,2.8l4.82.83q6.68,1.13,13.44,2c1.14.16,2.28.34,3.42.48q8.33,1.06,16.75,1.81c1.38.13,2.76.22,4.14.33q6.68.52,13.4.86c1.64.08,3.27.17,4.91.23,5.76.22,11.54.37,17.36.37s11.59-.15,17.35-.37c1.64-.06,3.28-.15,4.92-.23q6.72-.33,13.39-.86c1.38-.11,2.77-.2,4.14-.33q8.43-.75,16.75-1.81c1.15-.14,2.28-.32,3.42-.48q6.76-.91,13.45-2l4.82-.83q7.19-1.29,14.26-2.8c.71-.15,1.42-.28,2.12-.44,5.36-1.17,10.65-2.47,15.91-3.84,1.45-.37,2.88-.78,4.31-1.17q6.08-1.65,12.05-3.46c1.41-.43,2.84-.85,4.25-1.3,5.1-1.61,10.16-3.29,15.16-5.08.75-.27,1.49-.57,2.24-.84q6.45-2.36,12.77-4.91,2.24-.9,4.44-1.82,5.86-2.46,11.61-5.06c1-.47,2.07-.91,3.09-1.39q7-3.27,13.89-6.79c1.22-.63,2.42-1.28,3.64-1.92q5.26-2.76,10.41-5.68c1.35-.76,2.7-1.51,4-2.29,4.38-2.54,8.71-5.13,12.94-7.83l.89-.58c4-2.58,8-5.24,11.92-8,1.28-.89,2.54-1.79,3.81-2.7q4.68-3.33,9.21-6.78c1.08-.82,2.18-1.63,3.25-2.46q5.81-4.53,11.41-9.26c.94-.79,1.84-1.61,2.77-2.41q4.35-3.75,8.54-7.62,1.75-1.61,3.48-3.24,4.51-4.28,8.85-8.69c.57-.58,1.17-1.15,1.74-1.74,3.34-3.45,6.58-7,9.75-10.55,1-1.12,2-2.25,2.94-3.38q3.51-4.07,6.86-8.21c.93-1.15,1.87-2.28,2.77-3.44q4.39-5.58,8.53-11.3c.56-.78,1.08-1.58,1.63-2.37q3.36-4.77,6.52-9.64,1.29-2,2.53-4,3-4.71,5.73-9.51c.57-1,1.17-2,1.73-3,.13-.23.27-.45.39-.68l0,0a.25.25,0,0,1,0-.07C831.4,649.23,812.68,628.33,805.36,609Z"/></clipPath><linearGradient id="linear-gradient-22" x1="300.64" y1="423.22" x2="300.64" y2="1172.21" gradientTransform="matrix(1, 0, 0, 1, 0, 0)" xlink:href="#linear-gradient-2"/><linearGradient id="linear-gradient-23" x1="553.7" y1="569.75" x2="22.83" y2="569.75" gradientTransform="matrix(1, 0, 0, 1, 0, 0)" xlink:href="#linear-gradient-19"/><linearGradient id="linear-gradient-24" x1="639" y1="358.17" x2="639" y2="762.08" gradientTransform="matrix(1, 0, 0, 1, 0, 0)" xlink:href="#linear-gradient-8"/><linearGradient id="linear-gradient-25" x1="1530" y1="1024" x2="1530" y2="22.24" gradientTransform="matrix(1, 0, 0, 1, 0, 0)" xlink:href="#linear-gradient"/><linearGradient id="linear-gradient-26" x1="2402.28" y1="554.44" x2="802.93" y2="554.44" gradientTransform="matrix(1, 0, 0, 1, 0, 0)" xlink:href="#linear-gradient-2"/><linearGradient id="linear-gradient-27" x1="527.04" y1="646.16" x2="140.44" y2="-80.1" gradientTransform="matrix(0.9, 0.01, -0.03, 0.94, 1038.94, -31.89)" gradientUnits="userSpaceOnUse"><stop offset="0" stop-color="#e90000"/><stop offset="1" stop-color="#faa6ff"/></linearGradient><clipPath id="clip-path-7"><path class="cls-1" d="M1613,219.63s-32.84-88.61-196.36-91.34-268.88,47-350.67,165.08c0,0,105.06,9,118.62,114.73Z"/></clipPath><linearGradient id="linear-gradient-28" x1="988.07" y1="1363.03" x2="1733.1" y2="217.32" gradientTransform="matrix(1, 0, 0, 1, 0, 0)" xlink:href="#linear-gradient-2"/><linearGradient id="linear-gradient-29" x1="946.74" y1="1502.58" x2="1750.53" y2="266.49" gradientTransform="matrix(1, 0, 0, 1, 0, 0)" xlink:href="#linear-gradient-27"/><clipPath id="clip-path-8"><path class="cls-1" d="M1829.36,602a143.5,143.5,0,0,1-4.5-14.35c-3.95-17.1,5-22.91,15-22.67,13.41.33,25.55,9.72,67.78,3.41,0-.12.05-.24.07-.36h.07c.68-4.06,1.25-8.14,1.76-12.25.13-1,.21-2.08.33-3.12q.64-5.82,1-11.68c.1-1.37.19-2.74.26-4.11.26-4.87.44-9.76.44-14.69,0-103.64-57.83-195.8-147.54-254.41-63.49-41.36-142.9-65.93-229-65.93-69.39,0-134.41,16-190.25,43.76a1.46,1.46,0,0,0-.33.22c-48.87,45.51-101.88,135.26-28.64,286.88a1.31,1.31,0,0,1-.29,1.54c-8.09,7.4-81.14,78.88-44.79,216.55a1.33,1.33,0,0,0,.43.68q1.93,1.6,3.88,3.2c.93.75,1.86,1.5,2.8,2.24l.46.37,3,2.35,2.09,1.59q4.55,3.45,9.21,6.78,1.9,1.37,3.82,2.7,5.86,4.08,11.91,8l.89.58c4.24,2.7,8.57,5.29,12.94,7.83,1.34.78,2.68,1.53,4,2.29q5.14,2.91,10.42,5.68c1.21.64,2.41,1.29,3.63,1.92q6.85,3.51,13.89,6.79c1,.48,2.06.92,3.09,1.39q5.74,2.61,11.61,5.06c1.48.61,3,1.22,4.44,1.82q6.33,2.55,12.78,4.91c.75.27,1.48.57,2.23.84,5,1.79,10.06,3.47,15.17,5.08,1.41.45,2.83.87,4.25,1.3q6,1.82,12,3.46c1.44.39,2.87.8,4.31,1.17,5.26,1.37,10.56,2.67,15.91,3.84.7.16,1.41.29,2.12.44q7.08,1.51,14.27,2.8l4.82.83q6.67,1.13,13.44,2c1.14.16,2.28.34,3.42.48q8.33,1.06,16.75,1.81c1.38.13,2.76.22,4.14.33q6.67.52,13.4.86c1.64.08,3.27.17,4.91.23,5.76.22,11.54.37,17.36.37s11.59-.15,17.35-.37c1.64-.06,3.28-.15,4.92-.23q6.72-.33,13.39-.86c1.38-.11,2.77-.2,4.14-.33q8.43-.75,16.75-1.81c1.15-.14,2.28-.32,3.42-.48q6.76-.91,13.45-2l4.82-.83q7.18-1.29,14.26-2.8c.71-.15,1.42-.28,2.12-.44,5.36-1.17,10.65-2.47,15.91-3.84,1.45-.37,2.88-.78,4.31-1.17q6.08-1.65,12-3.46c1.41-.43,2.84-.85,4.25-1.3,5.1-1.61,10.16-3.29,15.16-5.08.75-.27,1.49-.57,2.24-.84q6.45-2.36,12.77-4.91,2.23-.9,4.44-1.82,5.87-2.46,11.61-5.06c1-.47,2.07-.91,3.09-1.39q7-3.27,13.89-6.79c1.22-.63,2.42-1.28,3.64-1.92q5.27-2.76,10.41-5.68c1.35-.76,2.7-1.51,4-2.29,4.38-2.54,8.71-5.13,12.94-7.83l.89-.58c4-2.58,8-5.24,11.92-8,1.28-.89,2.54-1.79,3.81-2.7q4.68-3.33,9.21-6.78c1.08-.82,2.18-1.63,3.25-2.46q5.81-4.53,11.41-9.26c.94-.79,1.84-1.61,2.77-2.41q4.35-3.75,8.54-7.62,1.76-1.61,3.48-3.24,4.51-4.28,8.85-8.69c.57-.58,1.17-1.15,1.74-1.74,3.34-3.45,6.58-7,9.75-10.55,1-1.12,2-2.25,2.94-3.38q3.51-4.07,6.86-8.21c.93-1.15,1.87-2.28,2.77-3.44q4.39-5.58,8.53-11.3c.56-.78,1.08-1.58,1.63-2.37q3.36-4.77,6.52-9.64,1.29-2,2.53-4,3-4.71,5.73-9.51c.57-1,1.17-2,1.73-3,.13-.23.27-.45.39-.68l0,0a.25.25,0,0,1,0-.07C1855.4,642.23,1836.68,621.33,1829.36,602Z"/></clipPath><linearGradient id="linear-gradient-30" x1="1324.64" y1="416.22" x2="1324.64" y2="1165.21" gradientTransform="matrix(1, 0, 0, 1, 0, 0)" xlink:href="#linear-gradient-2"/><linearGradient id="linear-gradient-31" x1="1577.7" y1="562.75" x2="1046.83" y2="562.75" gradientTransform="matrix(1, 0, 0, 1, 0, 0)" xlink:href="#linear-gradient-27"/><linearGradient id="linear-gradient-32" x1="1663" y1="351.17" x2="1663" y2="755.08" gradientTransform="matrix(1, 0, 0, 1, 0, 0)" xlink:href="#linear-gradient-8"/></defs><g id="Mask"><rect class="cls-2" y="1027" width="1024" height="1024" rx="226.33"/><path class="cls-3" d="M746.47,1294.78c-47.22-30.76-103.25-52.22-164.31-61.21q-18.06-2.62-36.68-3.74-13.41-.81-27.06-.83a438.7,438.7,0,0,0-110.84,14.09,1.66,1.66,0,0,0-.31.12,156,156,0,0,0-27.14,18.65c-35.2,30.09-50.4,66.82-50.21,107.48-.21-40.71,15-77.49,50.21-107.61A156.93,156.93,0,0,1,398.76,1248a1.31,1.31,0,0,0-1.06-2.37A409.23,409.23,0,0,0,325.53,1274c-65.43,33.2-118,82.76-150,142-29.23,57.67-39.68,123.13-29.12,185.72,13.13,68,51.44,128.84,106.52,175.3q7.6,6.42,15.63,12.46L179,1926.74a1.3,1.3,0,0,0,.84,2c18.33,3.48,164,27.56,240.49-69.72q12.72,2.91,25.77,5.08l3.41.55.75.12h.06l4.48.65h0l2.24.32c1.14.16,2.28.34,3.42.48q8.32,1.07,16.75,1.81c1.38.13,2.76.22,4.14.33q6.68.53,13.4.86c1.64.08,3.27.17,4.91.23q7,.27,14.15.34c1.07,0,2.13,0,3.21,0,5.82,0,11.59-.15,17.35-.37,1.64-.06,3.28-.15,4.92-.23q6.72-.33,13.39-.86c1.38-.11,2.77-.2,4.14-.33q8.43-.75,16.75-1.81c1.15-.14,2.28-.32,3.42-.48q6.76-.91,13.45-2l4.82-.83q7.18-1.29,14.26-2.8c.71-.15,1.42-.28,2.12-.44,5.36-1.17,10.65-2.47,15.91-3.84,1.45-.37,2.88-.78,4.31-1.17q6.07-1.65,12-3.46c1.41-.43,2.84-.85,4.25-1.3,5.1-1.61,10.16-3.29,15.16-5.08.75-.27,1.49-.57,2.24-.84q6.45-2.36,12.77-4.91,2.24-.9,4.44-1.82,5.87-2.46,11.61-5.06c1-.47,2.07-.91,3.09-1.39q7-3.27,13.89-6.79c1.22-.63,2.42-1.28,3.64-1.92q5.26-2.76,10.41-5.68c1.35-.76,2.7-1.51,4-2.29,4.38-2.54,8.71-5.13,12.94-7.83l.89-.58c4-2.58,8-5.24,11.92-8,1.28-.89,2.54-1.79,3.81-2.7q4.68-3.33,9.21-6.78c1.08-.82,2.18-1.63,3.25-2.46q5.8-4.53,11.41-9.26c.94-.79,1.84-1.61,2.77-2.41q4.35-3.75,8.54-7.62,1.76-1.61,3.48-3.24,4.51-4.27,8.85-8.69c.57-.58,1.17-1.15,1.74-1.74,3.34-3.45,6.58-7,9.75-10.55,1-1.12,2-2.25,2.94-3.38q3.51-4.07,6.86-8.21c.93-1.15,1.87-2.28,2.77-3.44q4.4-5.58,8.53-11.3c.56-.78,1.08-1.58,1.63-2.37q3.36-4.77,6.52-9.64,1.29-2,2.53-4,3-4.71,5.73-9.51c.57-1,1.17-2,1.73-3,.13-.23.27-.45.39-.68l0,0a.25.25,0,0,1,0-.07c-19.8-17.49-38.52-38.39-45.84-57.7a143.5,143.5,0,0,1-4.5-14.35c-3.95-17.1,5-22.91,15-22.67,13.41.33,25.55,9.72,67.78,3.41,0-.12.05-.24.07-.36h.07c.68-4.06,1.25-8.14,1.76-12.25.13-1,.21-2.08.33-3.12q.65-5.82,1-11.68c.1-1.37.19-2.74.26-4.11.26-4.87.44-9.76.44-14.69C894,1445.55,836.18,1353.39,746.47,1294.78ZM414.33,1577.44c2.81-5.56,4.23-10.25,4.17-14.63.07,4.4-1.34,9.11-4.17,14.69a345.84,345.84,0,0,0-26.62,69.08A345.75,345.75,0,0,1,414.33,1577.44Zm-35.27,130.11c0-.16,0-.33,0-.49C379.06,1707.22,379.06,1707.39,379.06,1707.55Zm.13-4.36c0-.26,0-.53,0-.79C379.21,1702.66,379.21,1702.92,379.19,1703.19Zm.22-4.38c0-.35,0-.7.06-1.06C379.44,1698.11,379.43,1698.46,379.41,1698.81Zm.28-4.39c0-.44.07-.87.1-1.3C379.76,1693.55,379.73,1694,379.69,1694.42Zm.37-4.39c.05-.51.09-1,.14-1.55C380.15,1689,380.11,1689.52,380.06,1690Zm.44-4.38c.06-.6.13-1.2.2-1.8C380.63,1684.45,380.56,1685.05,380.5,1685.65Zm.51-4.38c.09-.68.17-1.37.27-2C381.18,1679.9,381.1,1680.59,381,1681.27Zm.59-4.37c.11-.77.22-1.54.34-2.3C381.82,1675.36,381.71,1676.13,381.6,1676.9Zm.66-4.37.42-2.56Zm.73-4.35c.17-1,.34-1.9.52-2.84C383.33,1666.28,383.16,1667.23,383,1668.18Zm.81-4.34c.2-1,.41-2.1.63-3.14C384.21,1661.74,384,1662.79,383.8,1663.84Zm.87-4.33.75-3.46Zm.95-4.33c.29-1.26.58-2.53.89-3.79C386.2,1652.65,385.91,1653.92,385.62,1655.18Zm1-4.3q.51-2.09,1.05-4.17Q387.14,1648.79,386.63,1650.88ZM379,1711.73v0Zm56.77,136.79.08.08Zm9.27,8.57c.38.34.76.68,1.15,1C445.8,1857.77,445.42,1857.43,445,1857.09Zm-4.79-4.31,1,.94Z"/><path class="cls-4" d="M595,1246.63s-32.84-88.61-196.36-91.34-268.88,47-350.67,165.08c0,0,105.06,9,118.62,114.73Z"/><g class="cls-5"><path class="cls-6" d="M746.05,1294.78c-63.49-41.36-142.9-65.93-229-65.93-69.47,0-134.54,16-190.43,43.85C214.94,1328.37,140,1431.48,140,1549.48c0,89.52,43.14,170.46,112.71,228.63l.12.1q2.08,1.74,4.2,3.47c.93.75,1.86,1.5,2.8,2.24l.46.37,3,2.35,2.09,1.59q4.54,3.45,9.21,6.78,1.91,1.37,3.82,2.7,5.87,4.08,11.91,8l.89.58c4.24,2.7,8.57,5.29,12.94,7.83,1.34.78,2.68,1.53,4,2.29q5.15,2.91,10.42,5.68c1.21.64,2.41,1.29,3.63,1.92q6.86,3.51,13.89,6.79c1,.48,2.06.92,3.09,1.39q5.74,2.61,11.61,5.06c1.48.61,2.95,1.22,4.44,1.82q6.33,2.55,12.78,4.91c.75.27,1.48.57,2.23.84,5,1.79,10.06,3.47,15.17,5.08,1.41.45,2.83.87,4.25,1.3q6,1.81,12,3.46c1.44.39,2.87.8,4.31,1.17,5.26,1.37,10.56,2.67,15.91,3.84.7.16,1.41.29,2.12.44q7.08,1.52,14.27,2.8l4.82.83q6.68,1.13,13.44,2c1.14.16,2.28.34,3.42.48q8.33,1.07,16.75,1.81c1.38.13,2.76.22,4.14.33q6.68.53,13.4.86c1.64.08,3.27.17,4.91.23,5.76.22,11.54.37,17.36.37s11.59-.15,17.35-.37c1.64-.06,3.28-.15,4.92-.23q6.72-.33,13.39-.86c1.38-.11,2.77-.2,4.14-.33q8.43-.75,16.75-1.81c1.15-.14,2.28-.32,3.42-.48q6.76-.91,13.45-2l4.82-.83q7.19-1.29,14.26-2.8c.71-.15,1.42-.28,2.12-.44,5.36-1.17,10.65-2.47,15.91-3.84,1.45-.37,2.88-.78,4.31-1.17q6.08-1.65,12.05-3.46c1.42-.43,2.84-.85,4.25-1.3,5.1-1.61,10.17-3.29,15.16-5.08.75-.27,1.49-.57,2.24-.84q6.45-2.36,12.77-4.91,2.24-.9,4.44-1.82,5.86-2.46,11.61-5.06c1-.47,2.07-.91,3.09-1.39q7-3.27,13.89-6.79c1.22-.63,2.42-1.28,3.64-1.92q5.26-2.76,10.41-5.68c1.35-.76,2.7-1.51,4-2.29,4.38-2.54,8.71-5.13,12.94-7.83l.89-.58c4-2.58,8-5.24,11.92-8,1.28-.89,2.54-1.79,3.81-2.7q4.68-3.33,9.21-6.78c1.08-.82,2.18-1.63,3.25-2.46q5.81-4.53,11.41-9.26c.94-.79,1.84-1.61,2.77-2.41q4.35-3.75,8.54-7.62,1.75-1.61,3.48-3.24,4.51-4.27,8.85-8.69c.57-.58,1.17-1.15,1.74-1.74,3.34-3.45,6.58-7,9.75-10.55,1-1.12,2-2.25,2.94-3.38q3.51-4.07,6.86-8.21c.93-1.15,1.87-2.28,2.78-3.44q4.38-5.58,8.52-11.3c.56-.78,1.08-1.58,1.63-2.37q3.36-4.77,6.52-9.64,1.29-2,2.53-4,3-4.71,5.73-9.51c.57-1,1.17-2,1.73-3,.13-.23.27-.45.39-.68l0,0a.25.25,0,0,1,0-.07c-19.8-17.49-38.52-38.39-45.84-57.7a143.5,143.5,0,0,1-4.5-14.35c-4-17.1,5-22.91,15-22.67,13.41.33,25.55,9.72,67.78,3.41,0-.12,0-.24.07-.36h.07c.68-4.06,1.25-8.14,1.76-12.25.13-1,.21-2.08.33-3.12q.64-5.82,1-11.68c.1-1.37.19-2.74.26-4.11.26-4.87.44-9.76.44-14.69C893.59,1445.55,835.76,1353.39,746.05,1294.78Z"/></g><path class="cls-7" d="M746.05,1294.78c-47.22-30.76-103.25-52.22-164.31-61.21q-18.06-2.62-36.68-3.74Q531.65,1229,518,1229a438.7,438.7,0,0,0-110.84,14.09,1.66,1.66,0,0,0-.31.12,156,156,0,0,0-27.14,18.65c-49,41.89-59.23,96.65-43.18,157,13,48.87,40.87,89.8,73.78,127.31,9.16,10.45,10.05,18.61,3.6,31.36-22.6,44.67-36.68,92.14-35.24,142.63,1.66,58.23,27.1,105.24,72,142.1a15.1,15.1,0,0,1,2.43,2.61,1.32,1.32,0,0,0,.86.52l2.65.38c1.14.16,2.28.34,3.42.48q8.33,1.07,16.75,1.81c1.38.13,2.76.22,4.14.33q6.68.53,13.4.86c1.64.08,3.27.17,4.91.23q7.05.27,14.15.34c1.07,0,2.13,0,3.21,0,5.82,0,11.59-.15,17.35-.37,1.64-.06,3.28-.15,4.92-.23q6.72-.33,13.39-.86c1.38-.11,2.77-.2,4.14-.33q8.43-.75,16.75-1.81c1.15-.14,2.28-.32,3.42-.48q6.76-.91,13.45-2l4.82-.83q7.19-1.29,14.26-2.8c.71-.15,1.42-.28,2.12-.44,5.36-1.17,10.65-2.47,15.91-3.84,1.45-.37,2.88-.78,4.31-1.17q6.08-1.65,12.05-3.46c1.42-.43,2.84-.85,4.25-1.3,5.1-1.61,10.17-3.29,15.16-5.08.75-.27,1.49-.57,2.24-.84q6.45-2.36,12.77-4.91,2.24-.9,4.44-1.82,5.86-2.46,11.61-5.06c1-.47,2.07-.91,3.09-1.39q7-3.27,13.89-6.79c1.22-.63,2.42-1.28,3.64-1.92q5.26-2.76,10.41-5.68c1.35-.76,2.7-1.51,4-2.29,4.38-2.54,8.71-5.13,12.94-7.83l.89-.58c4-2.58,8-5.24,11.92-8,1.28-.89,2.54-1.79,3.81-2.7q4.68-3.33,9.21-6.78c1.08-.82,2.18-1.63,3.25-2.46q5.81-4.53,11.41-9.26c.94-.79,1.84-1.61,2.77-2.41q4.35-3.75,8.54-7.62,1.75-1.61,3.48-3.24,4.51-4.27,8.85-8.69c.57-.58,1.17-1.15,1.74-1.74,3.34-3.45,6.58-7,9.75-10.55,1-1.12,2-2.25,2.94-3.38q3.51-4.07,6.86-8.21c.93-1.15,1.87-2.28,2.78-3.44q4.38-5.58,8.52-11.3c.56-.78,1.08-1.58,1.63-2.37q3.36-4.77,6.52-9.64,1.29-2,2.53-4,3-4.71,5.73-9.51c.57-1,1.17-2,1.73-3,.13-.23.27-.45.39-.68l0,0a.25.25,0,0,1,0-.07c-19.8-17.49-38.52-38.39-45.84-57.7a143.5,143.5,0,0,1-4.5-14.35c-4-17.1,5-22.91,15-22.67,13.41.33,25.55,9.72,67.78,3.41,0-.12,0-.24.07-.36h.07c.68-4.06,1.25-8.14,1.76-12.25.13-1,.21-2.08.33-3.12q.64-5.82,1-11.68c.1-1.37.19-2.74.26-4.11.26-4.87.44-9.76.44-14.69C893.59,1445.55,835.76,1353.39,746.05,1294.78Z"/><g class="cls-8"><path class="cls-9" d="M292,1753,177.51,1928.36S357,1967,433,1840c0,0,14-16-21-69l-34.75-56.85s-27.77,17.41-41.65,25.59C316.09,1751.25,292,1753,292,1753Z"/></g><path class="cls-10" d="M454.37,1865.43,451,1862.5h0l-.3-.26a230,230,0,0,1-20-18.46c.77-1.22,1.55-2.44,2.31-3.7l.08-.12c.83-1,12.81-17.69-21-69l-33.4-54.64c-.66-49.11,13.27-95.35,35.31-138.92,6.45-12.75,5.56-20.92-3.6-31.36-32.91-37.52-60.77-78.47-73.78-127.34-16-60.34-5.83-115.11,43.18-157A156.93,156.93,0,0,1,398.34,1248a1.31,1.31,0,0,0-1.06-2.37A409.23,409.23,0,0,0,325.11,1274c-65.43,33.2-118,82.76-150,142-29.23,57.67-39.68,123.13-29.12,185.72,13.13,68,51.44,128.84,106.52,175.3q7.61,6.42,15.63,12.46l-89.57,137.26a1.3,1.3,0,0,0,.85,2c18.32,3.48,164,27.56,240.48-69.72q12.72,2.91,25.77,5.08l3.41.55.75.12h.06Z"/><path class="cls-1" d="M531.18,1229.2a1.31,1.31,0,0,0,.3-2.59,197.54,197.54,0,0,0-36.53-3.67c-27.3-.25-53.3,4.32-77,14.81a1.31,1.31,0,0,0,.83,2.47A440.14,440.14,0,0,1,518,1229Q524.62,1229,531.18,1229.2Z"/><path class="cls-11" d="M645,1410a90,90,0,1,0,90,90A90,90,0,0,0,645,1410Zm-7.2,149.06a50.21,50.21,0,0,1,0-100.42,49.54,49.54,0,0,1,24.68,6.63,1.29,1.29,0,0,1,0,2.23,20.17,20.17,0,0,0-9.44,17,20.44,20.44,0,0,0,20.43,20.44,19.9,19.9,0,0,0,11.77-3.93,1.36,1.36,0,0,1,2.15.86,47.56,47.56,0,0,1,.55,7A50.19,50.19,0,0,1,637.8,1559.06Z"/><rect class="cls-12" x="1018" y="1027" width="1024" height="1024" rx="226.33"/><path class="cls-13" d="M1764.47,1294.78c-47.22-30.76-103.25-52.22-164.31-61.21q-18.06-2.62-36.68-3.74-13.41-.81-27.06-.83a438.7,438.7,0,0,0-110.84,14.09,1.66,1.66,0,0,0-.31.12,156,156,0,0,0-27.14,18.65c-35.2,30.09-50.4,66.82-50.21,107.48-.21-40.71,15-77.49,50.21-107.61a156.93,156.93,0,0,1,18.63-13.69,1.31,1.31,0,0,0-1.06-2.37,409.23,409.23,0,0,0-72.17,28.28c-65.43,33.2-118,82.76-150,142-29.23,57.67-39.68,123.13-29.12,185.72,13.13,68,51.44,128.84,106.52,175.3q7.6,6.42,15.63,12.46L1197,1926.74a1.3,1.3,0,0,0,.84,2c18.33,3.48,164.05,27.56,240.49-69.72q12.72,2.91,25.77,5.08l3.41.55.75.12h.06l4.48.65h0l2.24.32c1.14.16,2.28.34,3.42.48q8.33,1.07,16.75,1.81c1.38.13,2.76.22,4.14.33q6.67.53,13.4.86c1.64.08,3.27.17,4.91.23q7,.27,14.15.34c1.07,0,2.13,0,3.21,0,5.82,0,11.59-.15,17.35-.37,1.64-.06,3.28-.15,4.92-.23q6.72-.33,13.39-.86c1.38-.11,2.77-.2,4.14-.33q8.43-.75,16.75-1.81c1.15-.14,2.28-.32,3.42-.48q6.76-.91,13.45-2l4.82-.83q7.18-1.29,14.26-2.8c.71-.15,1.42-.28,2.12-.44,5.36-1.17,10.65-2.47,15.91-3.84,1.45-.37,2.88-.78,4.31-1.17q6.08-1.65,12.05-3.46c1.41-.43,2.84-.85,4.25-1.3,5.1-1.61,10.16-3.29,15.16-5.08.75-.27,1.49-.57,2.24-.84q6.45-2.36,12.77-4.91,2.23-.9,4.44-1.82,5.87-2.46,11.61-5.06c1-.47,2.07-.91,3.09-1.39q7-3.27,13.89-6.79c1.22-.63,2.42-1.28,3.64-1.92q5.27-2.76,10.41-5.68c1.35-.76,2.7-1.51,4-2.29,4.38-2.54,8.71-5.13,12.94-7.83l.89-.58c4-2.58,8-5.24,11.92-8,1.28-.89,2.54-1.79,3.81-2.7q4.68-3.33,9.21-6.78c1.08-.82,2.18-1.63,3.25-2.46q5.8-4.53,11.41-9.26c.94-.79,1.84-1.61,2.77-2.41q4.35-3.75,8.54-7.62,1.75-1.61,3.48-3.24,4.51-4.27,8.85-8.69c.57-.58,1.17-1.15,1.74-1.74,3.34-3.45,6.58-7,9.75-10.55,1-1.12,2-2.25,2.94-3.38q3.51-4.07,6.86-8.21c.93-1.15,1.87-2.28,2.77-3.44q4.39-5.58,8.53-11.3c.56-.78,1.08-1.58,1.63-2.37q3.36-4.77,6.52-9.64,1.29-2,2.53-4,3-4.71,5.73-9.51c.57-1,1.17-2,1.73-3,.13-.23.27-.45.39-.68l0,0a.25.25,0,0,1,0-.07c-19.8-17.49-38.52-38.39-45.84-57.7a143.5,143.5,0,0,1-4.5-14.35c-4-17.1,5-22.91,15-22.67,13.41.33,25.55,9.72,67.78,3.41,0-.12,0-.24.07-.36h.07c.68-4.06,1.25-8.14,1.76-12.25.13-1,.21-2.08.33-3.12q.64-5.82,1-11.68c.1-1.37.19-2.74.26-4.11.26-4.87.44-9.76.44-14.69C1912,1445.55,1854.18,1353.39,1764.47,1294.78Zm-332.14,282.66c2.81-5.56,4.23-10.25,4.17-14.63.07,4.4-1.34,9.11-4.17,14.69a345.84,345.84,0,0,0-26.62,69.08A345.75,345.75,0,0,1,1432.33,1577.44Zm-35.27,130.11c0-.16,0-.33,0-.49C1397.06,1707.22,1397.06,1707.39,1397.06,1707.55Zm.13-4.36c0-.26,0-.53,0-.79C1397.21,1702.66,1397.21,1702.92,1397.19,1703.19Zm.22-4.38c0-.35,0-.7.06-1.06C1397.44,1698.11,1397.43,1698.46,1397.41,1698.81Zm.28-4.39c0-.44.07-.87.1-1.3C1397.76,1693.55,1397.73,1694,1397.69,1694.42Zm.37-4.39c0-.51.09-1,.14-1.55C1398.15,1689,1398.11,1689.52,1398.06,1690Zm.44-4.38c.06-.6.13-1.2.2-1.8C1398.63,1684.45,1398.56,1685.05,1398.5,1685.65Zm.51-4.38c.09-.68.17-1.37.27-2C1399.18,1679.9,1399.1,1680.59,1399,1681.27Zm.59-4.37c.11-.77.22-1.54.34-2.3C1399.82,1675.36,1399.71,1676.13,1399.6,1676.9Zm.66-4.37.42-2.56Zm.73-4.35c.17-1,.34-1.9.52-2.84C1401.33,1666.28,1401.16,1667.23,1401,1668.18Zm.81-4.34c.2-1,.41-2.1.63-3.14C1402.21,1661.74,1402,1662.79,1401.8,1663.84Zm.87-4.33.75-3.46Zm.95-4.33c.29-1.26.58-2.53.89-3.79C1404.2,1652.65,1403.91,1653.92,1403.62,1655.18Zm1-4.3q.51-2.09,1-4.17Q1405.14,1648.79,1404.63,1650.88Zm-7.63,60.85v0Zm56.77,136.79.08.08Zm9.27,8.57c.38.34.76.68,1.15,1C1463.8,1857.77,1463.42,1857.43,1463,1857.09Zm-4.79-4.31,1,.94Z"/><path class="cls-14" d="M1613,1246.63s-32.84-88.61-196.36-91.34-268.88,47-350.67,165.08c0,0,105.06,9,118.62,114.73Z"/><g class="cls-15"><path class="cls-16" d="M1764.05,1294.78c-63.49-41.36-142.9-65.93-229-65.93-69.47,0-134.54,16-190.43,43.85C1232.94,1328.37,1158,1431.48,1158,1549.48c0,89.52,43.14,170.46,112.71,228.63l.12.1q2.09,1.74,4.2,3.47c.93.75,1.86,1.5,2.8,2.24l.46.37,3,2.35,2.09,1.59q4.55,3.45,9.21,6.78,1.9,1.37,3.82,2.7,5.86,4.08,11.91,8l.89.58c4.24,2.7,8.57,5.29,12.94,7.83,1.34.78,2.68,1.53,4,2.29q5.14,2.91,10.42,5.68c1.21.64,2.41,1.29,3.63,1.92q6.85,3.51,13.89,6.79c1,.48,2.06.92,3.09,1.39q5.74,2.61,11.61,5.06c1.48.61,3,1.22,4.44,1.82q6.33,2.55,12.78,4.91c.75.27,1.48.57,2.23.84,5,1.79,10.06,3.47,15.17,5.08,1.41.45,2.83.87,4.25,1.3q6,1.81,12,3.46c1.44.39,2.87.8,4.31,1.17,5.26,1.37,10.56,2.67,15.91,3.84.7.16,1.41.29,2.12.44q7.08,1.52,14.27,2.8l4.82.83q6.67,1.13,13.44,2c1.14.16,2.28.34,3.42.48q8.33,1.07,16.75,1.81c1.38.13,2.76.22,4.14.33q6.67.53,13.4.86c1.64.08,3.27.17,4.91.23,5.76.22,11.54.37,17.36.37s11.59-.15,17.35-.37c1.64-.06,3.28-.15,4.92-.23q6.72-.33,13.39-.86c1.38-.11,2.77-.2,4.14-.33q8.43-.75,16.75-1.81c1.15-.14,2.28-.32,3.42-.48q6.76-.91,13.45-2l4.82-.83q7.18-1.29,14.26-2.8c.71-.15,1.42-.28,2.12-.44,5.36-1.17,10.65-2.47,15.91-3.84,1.45-.37,2.88-.78,4.31-1.17q6.08-1.65,12-3.46c1.42-.43,2.84-.85,4.25-1.3,5.1-1.61,10.17-3.29,15.16-5.08.75-.27,1.49-.57,2.24-.84q6.45-2.36,12.77-4.91,2.23-.9,4.44-1.82,5.87-2.46,11.61-5.06c1-.47,2.07-.91,3.09-1.39q7-3.27,13.89-6.79c1.22-.63,2.42-1.28,3.64-1.92q5.27-2.76,10.41-5.68c1.35-.76,2.7-1.51,4-2.29,4.38-2.54,8.71-5.13,12.94-7.83l.89-.58c4-2.58,8-5.24,11.92-8,1.28-.89,2.54-1.79,3.81-2.7q4.68-3.33,9.21-6.78c1.08-.82,2.18-1.63,3.25-2.46q5.81-4.53,11.41-9.26c.94-.79,1.84-1.61,2.77-2.41q4.35-3.75,8.54-7.62,1.76-1.61,3.48-3.24,4.51-4.27,8.85-8.69c.57-.58,1.17-1.15,1.74-1.74,3.34-3.45,6.58-7,9.75-10.55,1-1.12,2-2.25,2.94-3.38q3.51-4.07,6.86-8.21c.93-1.15,1.87-2.28,2.78-3.44q4.38-5.58,8.52-11.3c.56-.78,1.08-1.58,1.63-2.37q3.36-4.77,6.52-9.64,1.29-2,2.53-4,3-4.71,5.73-9.51c.57-1,1.17-2,1.73-3,.13-.23.27-.45.39-.68l0,0a.25.25,0,0,1,0-.07c-19.8-17.49-38.52-38.39-45.84-57.7a143.5,143.5,0,0,1-4.5-14.35c-3.95-17.1,5-22.91,15-22.67,13.41.33,25.55,9.72,67.78,3.41,0-.12.05-.24.07-.36h.07c.68-4.06,1.25-8.14,1.76-12.25.13-1,.21-2.08.33-3.12q.64-5.82,1-11.68c.1-1.37.19-2.74.26-4.11.26-4.87.44-9.76.44-14.69C1911.59,1445.55,1853.76,1353.39,1764.05,1294.78Z"/></g><path class="cls-17" d="M1764.05,1294.78c-47.22-30.76-103.25-52.22-164.31-61.21q-18.06-2.62-36.68-3.74-13.41-.81-27.06-.83a438.7,438.7,0,0,0-110.84,14.09,1.66,1.66,0,0,0-.31.12,156,156,0,0,0-27.14,18.65c-49,41.89-59.23,96.65-43.18,157,13,48.87,40.87,89.8,73.78,127.31,9.16,10.45,10,18.61,3.6,31.36-22.6,44.67-36.68,92.14-35.24,142.63,1.66,58.23,27.1,105.24,72,142.1a15.1,15.1,0,0,1,2.43,2.61,1.32,1.32,0,0,0,.86.52l2.65.38c1.14.16,2.28.34,3.42.48q8.33,1.07,16.75,1.81c1.38.13,2.76.22,4.14.33q6.67.53,13.4.86c1.64.08,3.27.17,4.91.23q7.05.27,14.15.34c1.07,0,2.13,0,3.21,0,5.82,0,11.59-.15,17.35-.37,1.64-.06,3.28-.15,4.92-.23q6.72-.33,13.39-.86c1.38-.11,2.77-.2,4.14-.33q8.43-.75,16.75-1.81c1.15-.14,2.28-.32,3.42-.48q6.76-.91,13.45-2l4.82-.83q7.18-1.29,14.26-2.8c.71-.15,1.42-.28,2.12-.44,5.36-1.17,10.65-2.47,15.91-3.84,1.45-.37,2.88-.78,4.31-1.17q6.08-1.65,12-3.46c1.42-.43,2.84-.85,4.25-1.3,5.1-1.61,10.17-3.29,15.16-5.08.75-.27,1.49-.57,2.24-.84q6.45-2.36,12.77-4.91,2.23-.9,4.44-1.82,5.87-2.46,11.61-5.06c1-.47,2.07-.91,3.09-1.39q7-3.27,13.89-6.79c1.22-.63,2.42-1.28,3.64-1.92q5.27-2.76,10.41-5.68c1.35-.76,2.7-1.51,4-2.29,4.38-2.54,8.71-5.13,12.94-7.83l.89-.58c4-2.58,8-5.24,11.92-8,1.28-.89,2.54-1.79,3.81-2.7q4.68-3.33,9.21-6.78c1.08-.82,2.18-1.63,3.25-2.46q5.81-4.53,11.41-9.26c.94-.79,1.84-1.61,2.77-2.41q4.35-3.75,8.54-7.62,1.76-1.61,3.48-3.24,4.51-4.27,8.85-8.69c.57-.58,1.17-1.15,1.74-1.74,3.34-3.45,6.58-7,9.75-10.55,1-1.12,2-2.25,2.94-3.38q3.51-4.07,6.86-8.21c.93-1.15,1.87-2.28,2.78-3.44q4.38-5.58,8.52-11.3c.56-.78,1.08-1.58,1.63-2.37q3.36-4.77,6.52-9.64,1.29-2,2.53-4,3-4.71,5.73-9.51c.57-1,1.17-2,1.73-3,.13-.23.27-.45.39-.68l0,0a.25.25,0,0,1,0-.07c-19.8-17.49-38.52-38.39-45.84-57.7a143.5,143.5,0,0,1-4.5-14.35c-3.95-17.1,5-22.91,15-22.67,13.41.33,25.55,9.72,67.78,3.41,0-.12.05-.24.07-.36h.07c.68-4.06,1.25-8.14,1.76-12.25.13-1,.21-2.08.33-3.12q.64-5.82,1-11.68c.1-1.37.19-2.74.26-4.11.26-4.87.44-9.76.44-14.69C1911.59,1445.55,1853.76,1353.39,1764.05,1294.78Z"/><g class="cls-18"><path class="cls-19" d="M1310,1753l-114.44,175.37S1375,1967,1451,1840c0,0,14-16-21-69l-34.75-56.85s-27.77,17.41-41.65,25.59C1334.09,1751.25,1310,1753,1310,1753Z"/></g><path class="cls-20" d="M1472.37,1865.43l-3.41-2.93h0l-.3-.26a230,230,0,0,1-20-18.46c.77-1.22,1.55-2.44,2.31-3.7l.08-.12c.83-1,12.81-17.69-21-69l-33.4-54.64c-.66-49.11,13.27-95.35,35.31-138.92,6.45-12.75,5.56-20.92-3.6-31.36-32.91-37.52-60.77-78.47-73.78-127.34-16-60.34-5.83-115.11,43.18-157a156.93,156.93,0,0,1,18.63-13.69,1.31,1.31,0,0,0-1.06-2.37,409.23,409.23,0,0,0-72.17,28.28c-65.43,33.2-118,82.76-150,142-29.23,57.67-39.68,123.13-29.12,185.72,13.13,68,51.44,128.84,106.52,175.3q7.6,6.42,15.63,12.46l-89.57,137.26a1.3,1.3,0,0,0,.85,2c18.32,3.48,164,27.56,240.48-69.72q12.72,2.91,25.77,5.08l3.41.55.75.12h.06Z"/><path class="cls-21" d="M1663,1410a90,90,0,1,0,90,90A90,90,0,0,0,1663,1410Zm-7.2,149.06a50.21,50.21,0,0,1,0-100.42,49.54,49.54,0,0,1,24.68,6.63,1.29,1.29,0,0,1,0,2.23,20.17,20.17,0,0,0-9.44,17,20.44,20.44,0,0,0,20.43,20.44,19.9,19.9,0,0,0,11.77-3.93,1.36,1.36,0,0,1,2.15.86,47.56,47.56,0,0,1,.55,7A50.19,50.19,0,0,1,1655.8,1559.06Z"/><rect class="cls-22" x="-6" y="7" width="1024" height="1024" rx="226.33"/><path class="cls-23" d="M740.47,274.78C693.25,244,637.22,222.56,576.16,213.57q-18.06-2.62-36.68-3.74-13.41-.81-27.06-.83a438.7,438.7,0,0,0-110.84,14.09,1.66,1.66,0,0,0-.31.12,156,156,0,0,0-27.14,18.65c-35.2,30.09-50.4,66.82-50.21,107.48-.21-40.71,15-77.49,50.21-107.61A156.93,156.93,0,0,1,392.76,228a1.31,1.31,0,0,0-1.06-2.37A409.23,409.23,0,0,0,319.53,254c-65.43,33.2-118,82.76-150,142.05-29.23,57.67-39.68,123.13-29.12,185.72,13.13,68,51.44,128.84,106.52,175.3q7.6,6.42,15.63,12.46L173,906.74a1.3,1.3,0,0,0,.84,2c18.33,3.48,164,27.56,240.49-69.72q12.72,2.91,25.77,5.08l3.41.55.75.12h.06l4.48.65h0l2.24.32c1.14.16,2.28.34,3.42.48q8.32,1.06,16.75,1.81c1.38.13,2.76.22,4.14.33q6.68.52,13.4.86c1.64.08,3.27.17,4.91.23q7,.27,14.15.34c1.07,0,2.13,0,3.21,0,5.82,0,11.59-.15,17.35-.37,1.64-.06,3.28-.15,4.92-.23q6.72-.33,13.39-.86c1.38-.11,2.77-.2,4.14-.33q8.43-.75,16.75-1.81c1.15-.14,2.28-.32,3.42-.48q6.76-.91,13.45-2l4.82-.83q7.18-1.29,14.26-2.8c.71-.15,1.42-.28,2.12-.44,5.36-1.17,10.65-2.47,15.91-3.84,1.45-.37,2.88-.78,4.31-1.17q6.07-1.65,12-3.46c1.41-.43,2.84-.85,4.25-1.3,5.1-1.61,10.16-3.29,15.16-5.08.75-.27,1.49-.57,2.24-.84Q666,821.59,672.3,819q2.24-.9,4.44-1.82,5.87-2.46,11.61-5.06c1-.47,2.07-.91,3.09-1.39q7-3.27,13.89-6.79c1.22-.63,2.42-1.28,3.64-1.92q5.26-2.76,10.41-5.68c1.35-.76,2.7-1.51,4-2.29,4.38-2.54,8.71-5.13,12.94-7.83l.89-.58c4-2.58,8-5.24,11.92-8,1.28-.89,2.54-1.79,3.81-2.7q4.68-3.33,9.21-6.78c1.08-.82,2.18-1.63,3.25-2.46q5.8-4.53,11.41-9.26c.94-.79,1.84-1.61,2.77-2.41q4.35-3.75,8.54-7.62,1.76-1.61,3.48-3.24,4.51-4.28,8.85-8.69c.57-.58,1.17-1.15,1.74-1.74,3.34-3.45,6.58-7,9.75-10.55,1-1.12,2-2.25,2.94-3.38q3.51-4.07,6.86-8.21c.93-1.15,1.87-2.28,2.77-3.44q4.4-5.58,8.53-11.3c.56-.78,1.08-1.58,1.63-2.37q3.36-4.77,6.52-9.64,1.29-2,2.53-4,3-4.71,5.73-9.51c.57-1,1.17-2,1.73-3,.13-.23.27-.45.39-.68l0,0a.25.25,0,0,1,0-.07c-19.8-17.49-38.52-38.39-45.84-57.7a143.5,143.5,0,0,1-4.5-14.35c-3.95-17.1,5-22.91,15-22.67,13.41.33,25.55,9.72,67.78,3.41,0-.12.05-.24.07-.36h.07c.68-4.06,1.25-8.14,1.76-12.25.13-1,.21-2.08.33-3.12q.65-5.82,1-11.68c.1-1.37.19-2.74.26-4.11.26-4.87.44-9.76.44-14.69C888,425.55,830.18,333.39,740.47,274.78ZM408.33,557.44c2.81-5.56,4.23-10.25,4.17-14.63.07,4.4-1.34,9.11-4.17,14.69a345.84,345.84,0,0,0-26.62,69.08A345.75,345.75,0,0,1,408.33,557.44ZM373.06,687.55c0-.16,0-.33,0-.49C373.06,687.22,373.06,687.39,373.06,687.55Zm.13-4.36c0-.26,0-.53,0-.79C373.21,682.66,373.21,682.92,373.19,683.19Zm.22-4.38c0-.35,0-.7.06-1.06C373.44,678.11,373.43,678.46,373.41,678.81Zm.28-4.39c0-.44.07-.87.1-1.3C373.76,673.55,373.73,674,373.69,674.42Zm.37-4.39c.05-.51.09-1,.14-1.55C374.15,669,374.11,669.52,374.06,670Zm.44-4.38c.06-.6.13-1.2.2-1.8C374.63,664.45,374.56,665.05,374.5,665.65Zm.51-4.38c.09-.68.17-1.37.27-2C375.18,659.9,375.1,660.59,375,661.27Zm.59-4.37c.11-.77.22-1.54.34-2.3C375.82,655.36,375.71,656.13,375.6,656.9Zm.66-4.37.42-2.56Zm.73-4.35c.17-.95.34-1.9.52-2.84C377.33,646.28,377.16,647.23,377,648.18Zm.81-4.34c.2-1.05.41-2.1.63-3.14C378.21,641.74,378,642.79,377.8,643.84Zm.87-4.33.75-3.46Zm.95-4.33c.29-1.26.58-2.53.89-3.79C380.2,632.65,379.91,633.92,379.62,635.18Zm1-4.3q.51-2.08,1.05-4.17Q381.14,628.8,380.63,630.88ZM373,691.73v0Zm56.77,136.79.08.08Zm9.27,8.57c.38.34.76.68,1.15,1C439.8,837.77,439.42,837.43,439,837.09Zm-4.79-4.31,1,.94Z"/><path class="cls-24" d="M589,226.63S556.11,138,392.59,135.29s-268.88,47-350.67,165.08c0,0,105.06,9,118.62,114.73Z"/><g class="cls-25"><path class="cls-26" d="M740.05,274.78c-63.49-41.36-142.9-65.93-229-65.93-69.47,0-134.54,16-190.43,43.85C208.94,308.37,134,411.48,134,529.48c0,89.52,43.14,170.46,112.71,228.63l.12.1q2.08,1.74,4.2,3.47c.93.75,1.86,1.5,2.8,2.24l.46.37,3,2.35,2.09,1.59q4.54,3.45,9.21,6.78,1.91,1.37,3.82,2.7,5.87,4.08,11.91,8l.89.58c4.24,2.7,8.57,5.29,12.94,7.83,1.34.78,2.68,1.53,4,2.29q5.15,2.91,10.42,5.68c1.21.64,2.41,1.29,3.63,1.92q6.86,3.51,13.89,6.79c1,.48,2.06.92,3.09,1.39q5.74,2.61,11.61,5.06c1.48.61,2.95,1.22,4.44,1.82q6.33,2.55,12.78,4.91c.75.27,1.48.57,2.23.84,5,1.79,10.06,3.47,15.17,5.08,1.41.45,2.83.87,4.25,1.3q6,1.82,12,3.46c1.44.39,2.87.8,4.31,1.17,5.26,1.37,10.56,2.67,15.91,3.84.7.16,1.41.29,2.12.44q7.08,1.51,14.27,2.8l4.82.83q6.68,1.13,13.44,2c1.14.16,2.28.34,3.42.48q8.33,1.06,16.75,1.81c1.38.13,2.76.22,4.14.33q6.68.52,13.4.86c1.64.08,3.27.17,4.91.23,5.76.22,11.54.37,17.36.37s11.59-.15,17.35-.37c1.64-.06,3.28-.15,4.92-.23q6.72-.33,13.39-.86c1.38-.11,2.77-.2,4.14-.33q8.43-.75,16.75-1.81c1.15-.14,2.28-.32,3.42-.48q6.76-.91,13.45-2l4.82-.83q7.19-1.29,14.26-2.8c.71-.15,1.42-.28,2.12-.44,5.36-1.17,10.65-2.47,15.91-3.84,1.45-.37,2.88-.78,4.31-1.17q6.08-1.65,12.05-3.46c1.42-.43,2.84-.85,4.25-1.3,5.1-1.61,10.17-3.29,15.16-5.08.75-.27,1.49-.57,2.24-.84q6.45-2.36,12.77-4.91,2.24-.9,4.44-1.82,5.86-2.46,11.61-5.06c1-.47,2.07-.91,3.09-1.39q7-3.27,13.89-6.79c1.22-.63,2.42-1.28,3.64-1.92q5.26-2.76,10.41-5.68c1.35-.76,2.7-1.51,4-2.29,4.38-2.54,8.71-5.13,12.94-7.83l.89-.58c4-2.58,8-5.24,11.92-8,1.28-.89,2.54-1.79,3.81-2.7q4.68-3.33,9.21-6.78c1.08-.82,2.18-1.63,3.25-2.46q5.81-4.53,11.41-9.26c.94-.79,1.84-1.61,2.77-2.41q4.35-3.75,8.54-7.62,1.75-1.61,3.48-3.24,4.51-4.28,8.85-8.69c.57-.58,1.17-1.15,1.74-1.74,3.34-3.45,6.58-7,9.75-10.55,1-1.12,2-2.25,2.94-3.38q3.51-4.07,6.86-8.21c.93-1.15,1.87-2.28,2.78-3.44q4.38-5.58,8.52-11.3c.56-.78,1.08-1.58,1.63-2.37q3.36-4.77,6.52-9.64,1.29-2,2.53-4,3-4.71,5.73-9.51c.57-1,1.17-2,1.73-3,.13-.23.27-.45.39-.68l0,0a.25.25,0,0,1,0-.07c-19.8-17.49-38.52-38.39-45.84-57.7a143.5,143.5,0,0,1-4.5-14.35c-4-17.1,5-22.91,15-22.67,13.41.33,25.55,9.72,67.78,3.41,0-.12,0-.24.07-.36h.07c.68-4.06,1.25-8.14,1.76-12.25.13-1,.21-2.08.33-3.12q.64-5.82,1-11.68c.1-1.37.19-2.74.26-4.11.26-4.87.44-9.76.44-14.69C887.59,425.55,829.76,333.39,740.05,274.78Z"/></g><path class="cls-27" d="M740.05,274.78C692.83,244,636.8,222.56,575.74,213.57q-18.06-2.62-36.68-3.74Q525.65,209,512,209a438.7,438.7,0,0,0-110.84,14.09,1.66,1.66,0,0,0-.31.12,156,156,0,0,0-27.14,18.65c-49,41.89-59.23,96.65-43.18,157,13,48.87,40.87,89.8,73.78,127.31,9.16,10.45,10.05,18.61,3.6,31.36-22.6,44.67-36.68,92.14-35.24,142.63,1.66,58.23,27.1,105.24,72,142.1a15.1,15.1,0,0,1,2.43,2.61,1.32,1.32,0,0,0,.86.52l2.65.38c1.14.16,2.28.34,3.42.48q8.33,1.06,16.75,1.81c1.38.13,2.76.22,4.14.33q6.68.52,13.4.86c1.64.08,3.27.17,4.91.23q7.05.27,14.15.34c1.07,0,2.13,0,3.21,0,5.82,0,11.59-.15,17.35-.37,1.64-.06,3.28-.15,4.92-.23q6.72-.33,13.39-.86c1.38-.11,2.77-.2,4.14-.33q8.43-.75,16.75-1.81c1.15-.14,2.28-.32,3.42-.48q6.76-.91,13.45-2l4.82-.83q7.19-1.29,14.26-2.8c.71-.15,1.42-.28,2.12-.44,5.36-1.17,10.65-2.47,15.91-3.84,1.45-.37,2.88-.78,4.31-1.17q6.08-1.65,12.05-3.46c1.42-.43,2.84-.85,4.25-1.3,5.1-1.61,10.17-3.29,15.16-5.08.75-.27,1.49-.57,2.24-.84q6.45-2.36,12.77-4.91,2.24-.9,4.44-1.82,5.86-2.46,11.61-5.06c1-.47,2.07-.91,3.09-1.39q7-3.27,13.89-6.79c1.22-.63,2.42-1.28,3.64-1.92q5.26-2.76,10.41-5.68c1.35-.76,2.7-1.51,4-2.29,4.38-2.54,8.71-5.13,12.94-7.83l.89-.58c4-2.58,8-5.24,11.92-8,1.28-.89,2.54-1.79,3.81-2.7q4.68-3.33,9.21-6.78c1.08-.82,2.18-1.63,3.25-2.46q5.81-4.53,11.41-9.26c.94-.79,1.84-1.61,2.77-2.41q4.35-3.75,8.54-7.62,1.75-1.61,3.48-3.24,4.51-4.28,8.85-8.69c.57-.58,1.17-1.15,1.74-1.74,3.34-3.45,6.58-7,9.75-10.55,1-1.12,2-2.25,2.94-3.38q3.51-4.07,6.86-8.21c.93-1.15,1.87-2.28,2.78-3.44q4.38-5.58,8.52-11.3c.56-.78,1.08-1.58,1.63-2.37q3.36-4.77,6.52-9.64,1.29-2,2.53-4,3-4.71,5.73-9.51c.57-1,1.17-2,1.73-3,.13-.23.27-.45.39-.68l0,0a.25.25,0,0,1,0-.07c-19.8-17.49-38.52-38.39-45.84-57.7a143.5,143.5,0,0,1-4.5-14.35c-4-17.1,5-22.91,15-22.67,13.41.33,25.55,9.72,67.78,3.41,0-.12,0-.24.07-.36h.07c.68-4.06,1.25-8.14,1.76-12.25.13-1,.21-2.08.33-3.12q.64-5.82,1-11.68c.1-1.37.19-2.74.26-4.11.26-4.87.44-9.76.44-14.69C887.59,425.55,829.76,333.39,740.05,274.78Z"/><g class="cls-28"><path class="cls-29" d="M286,733,171.51,908.36S351,947,427,820c0,0,14-16-21-69l-34.75-56.85s-27.77,17.41-41.65,25.59C310.09,731.25,286,733,286,733Z"/></g><path class="cls-30" d="M448.37,845.43,445,842.5h0l-.3-.26a230,230,0,0,1-20-18.46c.77-1.22,1.55-2.44,2.31-3.7L427,820c.83-1,12.81-17.69-21-69l-33.4-54.64c-.66-49.11,13.27-95.35,35.31-138.92,6.45-12.75,5.56-20.92-3.6-31.36-32.91-37.52-60.77-78.47-73.78-127.34-16-60.34-5.83-115.11,43.18-157A156.93,156.93,0,0,1,392.34,228a1.31,1.31,0,0,0-1.06-2.37A409.23,409.23,0,0,0,319.11,254c-65.43,33.2-118,82.76-150,142.05C139.88,453.67,129.43,519.13,140,581.72c13.13,68,51.44,128.84,106.52,175.3q7.61,6.42,15.63,12.46L172.57,906.74a1.3,1.3,0,0,0,.85,2c18.32,3.48,164,27.56,240.48-69.72q12.72,2.91,25.77,5.08l3.41.55.75.12h.06Z"/><path class="cls-31" d="M639,390a90,90,0,1,0,90,90A90,90,0,0,0,639,390Zm-7.2,149.06a50.21,50.21,0,0,1,0-100.42,49.54,49.54,0,0,1,24.68,6.63,1.29,1.29,0,0,1,0,2.23,20.17,20.17,0,0,0-9.44,17,20.44,20.44,0,0,0,20.43,20.44A19.9,19.9,0,0,0,679.27,481a1.36,1.36,0,0,1,2.15.86,47.56,47.56,0,0,1,.55,7A50.19,50.19,0,0,1,631.8,539.06Z"/><path class="cls-1" d="M1773.2,700.18a1.31,1.31,0,0,1-2.59.3,197.54,197.54,0,0,1-3.67-36.53c-.25-27.3,4.32-53.3,14.81-77a1.31,1.31,0,0,1,2.47.83A440.14,440.14,0,0,0,1773,687Q1773,693.62,1773.2,700.18Z"/><rect class="cls-32" x="1018" width="1024" height="1024" rx="226.33"/><path class="cls-33" d="M1764.47,267.78c-47.22-30.76-103.25-52.22-164.31-61.21q-18.06-2.62-36.68-3.74-13.41-.81-27.06-.83a438.7,438.7,0,0,0-110.84,14.09,1.66,1.66,0,0,0-.31.12,156,156,0,0,0-27.14,18.65c-35.2,30.09-50.4,66.82-50.21,107.48-.21-40.71,15-77.49,50.21-107.61A156.93,156.93,0,0,1,1416.76,221a1.31,1.31,0,0,0-1.06-2.37A409.23,409.23,0,0,0,1343.53,247c-65.43,33.2-118,82.76-150,142.05-29.23,57.67-39.68,123.13-29.12,185.72,13.13,68,51.44,128.84,106.52,175.3q7.6,6.42,15.63,12.46L1197,899.74a1.3,1.3,0,0,0,.84,2c18.33,3.48,164.05,27.56,240.49-69.72q12.72,2.91,25.77,5.08l3.41.55.75.12h.06l4.48.65h0l2.24.32c1.14.16,2.28.34,3.42.48q8.33,1.06,16.75,1.81c1.38.13,2.76.22,4.14.33q6.67.52,13.4.86c1.64.08,3.27.17,4.91.23q7,.27,14.15.34c1.07,0,2.13,0,3.21,0,5.82,0,11.59-.15,17.35-.37,1.64-.06,3.28-.15,4.92-.23q6.72-.33,13.39-.86c1.38-.11,2.77-.2,4.14-.33q8.43-.75,16.75-1.81c1.15-.14,2.28-.32,3.42-.48q6.76-.91,13.45-2l4.82-.83q7.18-1.29,14.26-2.8c.71-.15,1.42-.28,2.12-.44,5.36-1.17,10.65-2.47,15.91-3.84,1.45-.37,2.88-.78,4.31-1.17q6.08-1.65,12.05-3.46c1.41-.43,2.84-.85,4.25-1.3,5.1-1.61,10.16-3.29,15.16-5.08.75-.27,1.49-.57,2.24-.84q6.45-2.36,12.77-4.91,2.23-.9,4.44-1.82,5.87-2.46,11.61-5.06c1-.47,2.07-.91,3.09-1.39q7-3.27,13.89-6.79c1.22-.63,2.42-1.28,3.64-1.92q5.27-2.76,10.41-5.68c1.35-.76,2.7-1.51,4-2.29,4.38-2.54,8.71-5.13,12.94-7.83l.89-.58c4-2.58,8-5.24,11.92-8,1.28-.89,2.54-1.79,3.81-2.7q4.68-3.33,9.21-6.78c1.08-.82,2.18-1.63,3.25-2.46q5.8-4.53,11.41-9.26c.94-.79,1.84-1.61,2.77-2.41q4.35-3.75,8.54-7.62,1.75-1.61,3.48-3.24,4.51-4.28,8.85-8.69c.57-.58,1.17-1.15,1.74-1.74,3.34-3.45,6.58-7,9.75-10.55,1-1.12,2-2.25,2.94-3.38q3.51-4.07,6.86-8.21c.93-1.15,1.87-2.28,2.77-3.44q4.39-5.58,8.53-11.3c.56-.78,1.08-1.58,1.63-2.37q3.36-4.77,6.52-9.64,1.29-2,2.53-4,3-4.71,5.73-9.51c.57-1,1.17-2,1.73-3,.13-.23.27-.45.39-.68l0,0a.25.25,0,0,1,0-.07c-19.8-17.49-38.52-38.39-45.84-57.7a143.5,143.5,0,0,1-4.5-14.35c-4-17.1,5-22.91,15-22.67,13.41.33,25.55,9.72,67.78,3.41,0-.12,0-.24.07-.36h.07c.68-4.06,1.25-8.14,1.76-12.25.13-1,.21-2.08.33-3.12q.64-5.82,1-11.68c.1-1.37.19-2.74.26-4.11.26-4.87.44-9.76.44-14.69C1912,418.55,1854.18,326.39,1764.47,267.78ZM1432.33,550.44c2.81-5.56,4.23-10.25,4.17-14.63.07,4.4-1.34,9.11-4.17,14.69a345.84,345.84,0,0,0-26.62,69.08A345.75,345.75,0,0,1,1432.33,550.44Zm-35.27,130.11c0-.16,0-.33,0-.49C1397.06,680.22,1397.06,680.39,1397.06,680.55Zm.13-4.36c0-.26,0-.53,0-.79C1397.21,675.66,1397.21,675.92,1397.19,676.19Zm.22-4.38c0-.35,0-.7.06-1.06C1397.44,671.11,1397.43,671.46,1397.41,671.81Zm.28-4.39c0-.44.07-.87.1-1.3C1397.76,666.55,1397.73,667,1397.69,667.42Zm.37-4.39c0-.51.09-1,.14-1.55C1398.15,662,1398.11,662.52,1398.06,663Zm.44-4.38c.06-.6.13-1.2.2-1.8C1398.63,657.45,1398.56,658.05,1398.5,658.65Zm.51-4.38c.09-.68.17-1.37.27-2C1399.18,652.9,1399.1,653.59,1399,654.27Zm.59-4.37c.11-.77.22-1.54.34-2.3C1399.82,648.36,1399.71,649.13,1399.6,649.9Zm.66-4.37.42-2.56Zm.73-4.35c.17-.95.34-1.9.52-2.84C1401.33,639.28,1401.16,640.23,1401,641.18Zm.81-4.34c.2-1.05.41-2.1.63-3.14C1402.21,634.74,1402,635.79,1401.8,636.84Zm.87-4.33.75-3.46Zm.95-4.33c.29-1.26.58-2.53.89-3.79C1404.2,625.65,1403.91,626.92,1403.62,628.18Zm1-4.3q.51-2.08,1-4.17Q1405.14,621.8,1404.63,623.88ZM1397,684.73v0Zm56.77,136.79.08.08Zm9.27,8.57c.38.34.76.68,1.15,1C1463.8,830.77,1463.42,830.43,1463,830.09Zm-4.79-4.31,1,.94Z"/><path class="cls-34" d="M1613,219.63s-32.84-88.61-196.36-91.34-268.88,47-350.67,165.08c0,0,105.06,9,118.62,114.73Z"/><g class="cls-35"><path class="cls-36" d="M1764.05,267.78c-63.49-41.36-142.9-65.93-229-65.93-69.47,0-134.54,16-190.43,43.85C1232.94,301.37,1158,404.48,1158,522.48c0,89.52,43.14,170.46,112.71,228.63l.12.1q2.09,1.74,4.2,3.47c.93.75,1.86,1.5,2.8,2.24l.46.37,3,2.35,2.09,1.59q4.55,3.45,9.21,6.78,1.9,1.37,3.82,2.7,5.86,4.08,11.91,8l.89.58c4.24,2.7,8.57,5.29,12.94,7.83,1.34.78,2.68,1.53,4,2.29q5.14,2.91,10.42,5.68c1.21.64,2.41,1.29,3.63,1.92q6.85,3.51,13.89,6.79c1,.48,2.06.92,3.09,1.39q5.74,2.61,11.61,5.06c1.48.61,3,1.22,4.44,1.82q6.33,2.55,12.78,4.91c.75.27,1.48.57,2.23.84,5,1.79,10.06,3.47,15.17,5.08,1.41.45,2.83.87,4.25,1.3q6,1.82,12,3.46c1.44.39,2.87.8,4.31,1.17,5.26,1.37,10.56,2.67,15.91,3.84.7.16,1.41.29,2.12.44q7.08,1.51,14.27,2.8l4.82.83q6.67,1.13,13.44,2c1.14.16,2.28.34,3.42.48q8.33,1.06,16.75,1.81c1.38.13,2.76.22,4.14.33q6.67.52,13.4.86c1.64.08,3.27.17,4.91.23,5.76.22,11.54.37,17.36.37s11.59-.15,17.35-.37c1.64-.06,3.28-.15,4.92-.23q6.72-.33,13.39-.86c1.38-.11,2.77-.2,4.14-.33q8.43-.75,16.75-1.81c1.15-.14,2.28-.32,3.42-.48q6.76-.91,13.45-2l4.82-.83q7.18-1.29,14.26-2.8c.71-.15,1.42-.28,2.12-.44,5.36-1.17,10.65-2.47,15.91-3.84,1.45-.37,2.88-.78,4.31-1.17q6.08-1.65,12-3.46c1.42-.43,2.84-.85,4.25-1.3,5.1-1.61,10.17-3.29,15.16-5.08.75-.27,1.49-.57,2.24-.84q6.45-2.36,12.77-4.91,2.23-.9,4.44-1.82,5.87-2.46,11.61-5.06c1-.47,2.07-.91,3.09-1.39q7-3.27,13.89-6.79c1.22-.63,2.42-1.28,3.64-1.92q5.27-2.76,10.41-5.68c1.35-.76,2.7-1.51,4-2.29,4.38-2.54,8.71-5.13,12.94-7.83l.89-.58c4-2.58,8-5.24,11.92-8,1.28-.89,2.54-1.79,3.81-2.7q4.68-3.33,9.21-6.78c1.08-.82,2.18-1.63,3.25-2.46q5.81-4.53,11.41-9.26c.94-.79,1.84-1.61,2.77-2.41q4.35-3.75,8.54-7.62,1.76-1.61,3.48-3.24,4.51-4.28,8.85-8.69c.57-.58,1.17-1.15,1.74-1.74,3.34-3.45,6.58-7,9.75-10.55,1-1.12,2-2.25,2.94-3.38q3.51-4.07,6.86-8.21c.93-1.15,1.87-2.28,2.78-3.44q4.38-5.58,8.52-11.3c.56-.78,1.08-1.58,1.63-2.37q3.36-4.77,6.52-9.64,1.29-2,2.53-4,3-4.71,5.73-9.51c.57-1,1.17-2,1.73-3,.13-.23.27-.45.39-.68l0,0a.25.25,0,0,1,0-.07c-19.8-17.49-38.52-38.39-45.84-57.7a143.5,143.5,0,0,1-4.5-14.35c-3.95-17.1,5-22.91,15-22.67,13.41.33,25.55,9.72,67.78,3.41,0-.12.05-.24.07-.36h.07c.68-4.06,1.25-8.14,1.76-12.25.13-1,.21-2.08.33-3.12q.64-5.82,1-11.68c.1-1.37.19-2.74.26-4.11.26-4.87.44-9.76.44-14.69C1911.59,418.55,1853.76,326.39,1764.05,267.78Z"/></g><path class="cls-37" d="M1764.05,267.78c-47.22-30.76-103.25-52.22-164.31-61.21q-18.06-2.62-36.68-3.74Q1549.65,202,1536,202a438.7,438.7,0,0,0-110.84,14.09,1.66,1.66,0,0,0-.31.12,156,156,0,0,0-27.14,18.65c-49,41.89-59.23,96.65-43.18,157,13,48.87,40.87,89.8,73.78,127.31,9.16,10.45,10,18.61,3.6,31.36-22.6,44.67-36.68,92.14-35.24,142.63,1.66,58.23,27.1,105.24,72,142.1a15.1,15.1,0,0,1,2.43,2.61,1.32,1.32,0,0,0,.86.52l2.65.38c1.14.16,2.28.34,3.42.48q8.33,1.06,16.75,1.81c1.38.13,2.76.22,4.14.33q6.67.52,13.4.86c1.64.08,3.27.17,4.91.23q7.05.27,14.15.34c1.07,0,2.13,0,3.21,0,5.82,0,11.59-.15,17.35-.37,1.64-.06,3.28-.15,4.92-.23q6.72-.33,13.39-.86c1.38-.11,2.77-.2,4.14-.33q8.43-.75,16.75-1.81c1.15-.14,2.28-.32,3.42-.48q6.76-.91,13.45-2l4.82-.83q7.18-1.29,14.26-2.8c.71-.15,1.42-.28,2.12-.44,5.36-1.17,10.65-2.47,15.91-3.84,1.45-.37,2.88-.78,4.31-1.17q6.08-1.65,12-3.46c1.42-.43,2.84-.85,4.25-1.3,5.1-1.61,10.17-3.29,15.16-5.08.75-.27,1.49-.57,2.24-.84q6.45-2.36,12.77-4.91,2.23-.9,4.44-1.82,5.87-2.46,11.61-5.06c1-.47,2.07-.91,3.09-1.39q7-3.27,13.89-6.79c1.22-.63,2.42-1.28,3.64-1.92q5.27-2.76,10.41-5.68c1.35-.76,2.7-1.51,4-2.29,4.38-2.54,8.71-5.13,12.94-7.83l.89-.58c4-2.58,8-5.24,11.92-8,1.28-.89,2.54-1.79,3.81-2.7q4.68-3.33,9.21-6.78c1.08-.82,2.18-1.63,3.25-2.46q5.81-4.53,11.41-9.26c.94-.79,1.84-1.61,2.77-2.41q4.35-3.75,8.54-7.62,1.76-1.61,3.48-3.24,4.51-4.28,8.85-8.69c.57-.58,1.17-1.15,1.74-1.74,3.34-3.45,6.58-7,9.75-10.55,1-1.12,2-2.25,2.94-3.38q3.51-4.07,6.86-8.21c.93-1.15,1.87-2.28,2.78-3.44q4.38-5.58,8.52-11.3c.56-.78,1.08-1.58,1.63-2.37q3.36-4.77,6.52-9.64,1.29-2,2.53-4,3-4.71,5.73-9.51c.57-1,1.17-2,1.73-3,.13-.23.27-.45.39-.68l0,0a.25.25,0,0,1,0-.07c-19.8-17.49-38.52-38.39-45.84-57.7a143.5,143.5,0,0,1-4.5-14.35c-3.95-17.1,5-22.91,15-22.67,13.41.33,25.55,9.72,67.78,3.41,0-.12.05-.24.07-.36h.07c.68-4.06,1.25-8.14,1.76-12.25.13-1,.21-2.08.33-3.12q.64-5.82,1-11.68c.1-1.37.19-2.74.26-4.11.26-4.87.44-9.76.44-14.69C1911.59,418.55,1853.76,326.39,1764.05,267.78Z"/><g class="cls-38"><path class="cls-39" d="M1310,726,1195.51,901.36S1375,940,1451,813c0,0,14-16-21-69l-34.75-56.85s-27.77,17.41-41.65,25.59C1334.09,724.25,1310,726,1310,726Z"/></g><path class="cls-40" d="M1472.37,838.43,1469,835.5h0l-.3-.26a230,230,0,0,1-20-18.46c.77-1.22,1.55-2.44,2.31-3.7a.83.83,0,0,1,.08-.12c.83-1,12.81-17.69-21-69l-33.4-54.64c-.66-49.11,13.27-95.35,35.31-138.92,6.45-12.75,5.56-20.92-3.6-31.36-32.91-37.52-60.77-78.47-73.78-127.34-16-60.34-5.83-115.11,43.18-157A156.93,156.93,0,0,1,1416.34,221a1.31,1.31,0,0,0-1.06-2.37A409.23,409.23,0,0,0,1343.11,247c-65.43,33.2-118,82.76-150,142.05-29.23,57.67-39.68,123.13-29.12,185.72,13.13,68,51.44,128.84,106.52,175.3q7.6,6.42,15.63,12.46l-89.57,137.26a1.3,1.3,0,0,0,.85,2c18.32,3.48,164,27.56,240.48-69.72q12.72,2.91,25.77,5.08l3.41.55.75.12h.06Z"/><path class="cls-41" d="M1663,383a90,90,0,1,0,90,90A90,90,0,0,0,1663,383Zm-7.2,149.06a50.21,50.21,0,0,1,0-100.42,49.54,49.54,0,0,1,24.68,6.63,1.29,1.29,0,0,1,0,2.23,20.17,20.17,0,0,0-9.44,17,20.44,20.44,0,0,0,20.43,20.44,19.9,19.9,0,0,0,11.77-3.93,1.36,1.36,0,0,1,2.15.86,47.56,47.56,0,0,1,.55,7A50.19,50.19,0,0,1,1655.8,532.06Z"/></g></svg>