<svg xmlns="http://www.w3.org/2000/svg" xmlns:xlink="http://www.w3.org/1999/xlink" viewBox="0 0 3295 2272"><defs><style>.cls-1{fill:#606060;}.cls-2{fill:url(#linear-gradient);}.cls-3{fill:url(#linear-gradient-2);}.cls-4{fill:url(#linear-gradient-3);}.cls-5{fill:url(#linear-gradient-4);}.cls-6{fill:url(#linear-gradient-5);}.cls-7{fill:url(#linear-gradient-6);}.cls-8{fill:url(#linear-gradient-7);}.cls-9{fill:url(#linear-gradient-8);}.cls-10{fill:url(#linear-gradient-9);}.cls-11{fill:url(#linear-gradient-10);}.cls-12{fill:url(#linear-gradient-11);}.cls-13{fill:url(#linear-gradient-12);}.cls-14{fill:url(#linear-gradient-13);}.cls-15{fill:#fff;}.cls-16{fill:url(#linear-gradient-14);}.cls-17{fill:url(#linear-gradient-15);}.cls-18{fill:url(#linear-gradient-16);}.cls-19{fill:url(#linear-gradient-17);}.cls-20{fill:url(#linear-gradient-18);}.cls-21{fill:url(#linear-gradient-19);}.cls-22{fill:url(#linear-gradient-20);}.cls-23{fill:url(#linear-gradient-21);}.cls-24{fill:url(#linear-gradient-22);}.cls-25{fill:url(#linear-gradient-23);}.cls-26{fill:url(#linear-gradient-24);}.cls-27{fill:url(#linear-gradient-25);}.cls-28{fill:url(#linear-gradient-26);}.cls-29{fill:url(#linear-gradient-27);}.cls-30{fill:url(#linear-gradient-28);}.cls-31{fill:url(#linear-gradient-29);}.cls-32{fill:url(#linear-gradient-30);}.cls-33{fill:url(#linear-gradient-31);}.cls-34{fill:url(#linear-gradient-32);}.cls-35{fill:url(#linear-gradient-33);}.cls-36{fill:url(#linear-gradient-34);}.cls-37{fill:url(#linear-gradient-35);}.cls-38{fill:url(#linear-gradient-36);}.cls-39{fill:url(#linear-gradient-37);}.cls-40{fill:url(#linear-gradient-38);}.cls-41{fill:url(#linear-gradient-39);}.cls-42{fill:url(#linear-gradient-40);}.cls-43{fill:url(#linear-gradient-41);}.cls-44{fill:url(#linear-gradient-42);}.cls-45{fill:url(#linear-gradient-43);}.cls-46{fill:url(#linear-gradient-44);}.cls-47{fill:url(#linear-gradient-45);}.cls-48{fill:url(#linear-gradient-46);}.cls-49{fill:url(#linear-gradient-47);}.cls-50{fill:url(#linear-gradient-48);}.cls-51{fill:url(#linear-gradient-49);}.cls-52{fill:url(#linear-gradient-50);}.cls-53{fill:url(#linear-gradient-51);}.cls-54{fill:#fece42;}.cls-55{fill:url(#linear-gradient-52);}.cls-56{fill:#3d7dcf;}.cls-57{fill:url(#linear-gradient-53);}.cls-58{fill:url(#linear-gradient-54);}.cls-59{fill:url(#linear-gradient-55);}.cls-60{fill:url(#linear-gradient-56);}.cls-61{fill:url(#linear-gradient-57);}.cls-62{fill:url(#linear-gradient-58);}.cls-63{fill:#24aae5;}.cls-64{fill:url(#linear-gradient-59);}.cls-65{fill:url(#linear-gradient-60);}.cls-66{fill:url(#linear-gradient-61);}.cls-67{fill:url(#linear-gradient-62);}.cls-68{fill:url(#linear-gradient-63);}.cls-69{fill:url(#linear-gradient-64);}.cls-70{fill:url(#linear-gradient-65);}</style><linearGradient id="linear-gradient" x1="1640" y1="-151.83" x2="1640" y2="854.14" gradientUnits="userSpaceOnUse"><stop offset="0" stop-color="#ebad4a"/><stop offset="1" stop-color="#ffe352"/></linearGradient><linearGradient id="linear-gradient-2" x1="1116.59" y1="1375.12" x2="1861.64" y2="229.38" gradientUnits="userSpaceOnUse"><stop offset="0" stop-color="#5e147d"/><stop offset="1" stop-color="#39d5ff"/></linearGradient><linearGradient id="linear-gradient-3" x1="1562.81" y1="498.45" x2="1115.13" y2="498.45" xlink:href="#linear-gradient-2"/><linearGradient id="linear-gradient-4" x1="1644.69" y1="535.93" x2="1389.52" y2="-121.93" xlink:href="#linear-gradient-2"/><linearGradient id="linear-gradient-5" x1="1516.39" y1="737.83" x2="1420.25" y2="946.36" xlink:href="#linear-gradient-2"/><linearGradient id="linear-gradient-6" x1="1023.21" y1="1314.34" x2="1768.23" y2="168.64" xlink:href="#linear-gradient-2"/><linearGradient id="linear-gradient-7" x1="1026.79" y1="1316.67" x2="1771.81" y2="170.97" xlink:href="#linear-gradient-2"/><linearGradient id="linear-gradient-8" x1="990.43" y1="1293.03" x2="1735.46" y2="147.33" xlink:href="#linear-gradient-2"/><linearGradient id="linear-gradient-9" x1="1024.93" y1="1315.51" x2="1272.1" y2="935.4" xlink:href="#linear-gradient-2"/><linearGradient id="linear-gradient-10" x1="1262.2" y1="1469.8" x2="2007.24" y2="324.06" xlink:href="#linear-gradient-2"/><linearGradient id="linear-gradient-11" x1="1214.75" y1="1438.95" x2="1959.79" y2="293.21" xlink:href="#linear-gradient-2"/><linearGradient id="linear-gradient-12" x1="1019.35" y1="1311.89" x2="1764.4" y2="166.15" xlink:href="#linear-gradient-2"/><linearGradient id="linear-gradient-13" x1="1116.62" y1="1375.09" x2="1861.64" y2="229.38" xlink:href="#linear-gradient-2"/><linearGradient id="linear-gradient-14" x1="1640" y1="1132.96" x2="1640" y2="2090.88" xlink:href="#linear-gradient"/><linearGradient id="linear-gradient-15" x1="1154.71" y1="2613.71" x2="1897.59" y2="1471.29" xlink:href="#linear-gradient-2"/><linearGradient id="linear-gradient-16" x1="1598.66" y1="1738.45" x2="1155.74" y2="1738.45" xlink:href="#linear-gradient-2"/><linearGradient id="linear-gradient-17" x1="1681.64" y1="1775.76" x2="1426.66" y2="1118.4" xlink:href="#linear-gradient-2"/><linearGradient id="linear-gradient-18" x1="1553.39" y1="1977.82" x2="1457.25" y2="2186.35" xlink:href="#linear-gradient-2"/><linearGradient id="linear-gradient-19" x1="1060.21" y1="2554.33" x2="1805.23" y2="1408.63" xlink:href="#linear-gradient-2"/><linearGradient id="linear-gradient-20" x1="1063.79" y1="2556.66" x2="1808.81" y2="1410.96" xlink:href="#linear-gradient-2"/><linearGradient id="linear-gradient-21" x1="1027.08" y1="2533.57" x2="1772.53" y2="1387.2" xlink:href="#linear-gradient-2"/><linearGradient id="linear-gradient-22" x1="1061.93" y1="2555.5" x2="1309.1" y2="2175.39" xlink:href="#linear-gradient-2"/><linearGradient id="linear-gradient-23" x1="1299.18" y1="2709.81" x2="2044.24" y2="1564.05" xlink:href="#linear-gradient-2"/><linearGradient id="linear-gradient-24" x1="1250.32" y1="2682.08" x2="1997.74" y2="1532.7" xlink:href="#linear-gradient-2"/><linearGradient id="linear-gradient-25" x1="1056.35" y1="2551.88" x2="1801.4" y2="1406.14" xlink:href="#linear-gradient-2"/><linearGradient id="linear-gradient-26" x1="1154.73" y1="2613.68" x2="1897.6" y2="1471.29" xlink:href="#linear-gradient-2"/><linearGradient id="linear-gradient-27" x1="26.71" y1="2606.44" x2="769.59" y2="1464.01" xlink:href="#linear-gradient-2"/><linearGradient id="linear-gradient-28" x1="470.66" y1="1731.17" x2="27.74" y2="1731.17" xlink:href="#linear-gradient-2"/><linearGradient id="linear-gradient-29" x1="553.64" y1="1768.49" x2="298.66" y2="1111.12" xlink:href="#linear-gradient-2"/><linearGradient id="linear-gradient-30" x1="425.39" y1="1970.55" x2="329.25" y2="2179.07" xlink:href="#linear-gradient-2"/><linearGradient id="linear-gradient-31" x1="-67.79" y1="2547.06" x2="677.23" y2="1401.35" xlink:href="#linear-gradient-2"/><linearGradient id="linear-gradient-32" x1="-64.21" y1="2549.39" x2="680.81" y2="1403.68" xlink:href="#linear-gradient-2"/><linearGradient id="linear-gradient-33" x1="-100.92" y1="2526.29" x2="644.53" y2="1379.93" xlink:href="#linear-gradient-2"/><linearGradient id="linear-gradient-34" x1="-66.07" y1="2548.23" x2="181.1" y2="2168.12" xlink:href="#linear-gradient-2"/><linearGradient id="linear-gradient-35" x1="171.18" y1="2702.54" x2="916.24" y2="1556.77" xlink:href="#linear-gradient-2"/><linearGradient id="linear-gradient-36" x1="122.32" y1="2674.81" x2="869.74" y2="1525.43" xlink:href="#linear-gradient-2"/><linearGradient id="linear-gradient-37" x1="-71.65" y1="2544.6" x2="673.4" y2="1398.86" xlink:href="#linear-gradient-2"/><linearGradient id="linear-gradient-38" x1="26.73" y1="2606.4" x2="769.6" y2="1464.01" xlink:href="#linear-gradient-2"/><linearGradient id="linear-gradient-39" x1="-10.29" y1="1373.72" x2="732.59" y2="231.3" xlink:href="#linear-gradient-2"/><linearGradient id="linear-gradient-40" x1="433.66" y1="498.45" x2="-9.26" y2="498.45" xlink:href="#linear-gradient-2"/><linearGradient id="linear-gradient-41" x1="516.64" y1="535.77" x2="261.66" y2="-121.59" xlink:href="#linear-gradient-2"/><linearGradient id="linear-gradient-42" x1="388.39" y1="737.83" x2="292.25" y2="946.36" xlink:href="#linear-gradient-2"/><linearGradient id="linear-gradient-43" x1="-104.79" y1="1314.34" x2="640.23" y2="168.64" xlink:href="#linear-gradient-2"/><linearGradient id="linear-gradient-44" x1="-101.21" y1="1316.67" x2="643.81" y2="170.97" xlink:href="#linear-gradient-2"/><linearGradient id="linear-gradient-45" x1="-137.92" y1="1293.58" x2="607.53" y2="147.21" xlink:href="#linear-gradient-2"/><linearGradient id="linear-gradient-46" x1="-103.07" y1="1315.51" x2="144.1" y2="935.4" xlink:href="#linear-gradient-2"/><linearGradient id="linear-gradient-47" x1="134.18" y1="1469.82" x2="879.24" y2="324.06" xlink:href="#linear-gradient-2"/><linearGradient id="linear-gradient-48" x1="85.32" y1="1442.09" x2="832.74" y2="292.71" xlink:href="#linear-gradient-2"/><linearGradient id="linear-gradient-49" x1="-108.65" y1="1311.89" x2="636.4" y2="166.15" xlink:href="#linear-gradient-2"/><linearGradient id="linear-gradient-50" x1="-10.27" y1="1373.69" x2="732.6" y2="231.3" xlink:href="#linear-gradient-2"/><linearGradient id="linear-gradient-51" x1="2405.18" y1="1481.82" x2="3150.24" y2="336.06" xlink:href="#linear-gradient-2"/><linearGradient id="linear-gradient-52" x1="2260.71" y1="1373.72" x2="3003.59" y2="231.3" xlink:href="#linear-gradient-2"/><linearGradient id="linear-gradient-53" x1="2166.21" y1="1314.34" x2="2911.23" y2="168.64" xlink:href="#linear-gradient-2"/><linearGradient id="linear-gradient-54" x1="2169.79" y1="1316.67" x2="2914.81" y2="170.97" xlink:href="#linear-gradient-2"/><linearGradient id="linear-gradient-55" x1="2133.08" y1="1293.58" x2="2878.53" y2="147.21" xlink:href="#linear-gradient-2"/><linearGradient id="linear-gradient-56" x1="2167.93" y1="1315.51" x2="2415.1" y2="935.4" xlink:href="#linear-gradient-2"/><linearGradient id="linear-gradient-57" x1="2356.32" y1="1442.09" x2="3103.74" y2="292.71" xlink:href="#linear-gradient-2"/><linearGradient id="linear-gradient-58" x1="2162.35" y1="1311.89" x2="2907.4" y2="166.15" xlink:href="#linear-gradient-2"/><linearGradient id="linear-gradient-59" x1="2292.71" y1="2613.71" x2="3035.59" y2="1471.29" xlink:href="#linear-gradient-2"/><linearGradient id="linear-gradient-60" x1="2198.21" y1="2554.33" x2="2943.23" y2="1408.63" xlink:href="#linear-gradient-2"/><linearGradient id="linear-gradient-61" x1="2201.79" y1="2556.66" x2="2946.81" y2="1410.96" xlink:href="#linear-gradient-2"/><linearGradient id="linear-gradient-62" x1="2199.93" y1="2555.5" x2="2447.1" y2="2175.39" xlink:href="#linear-gradient-2"/><linearGradient id="linear-gradient-63" x1="2437.18" y1="2709.81" x2="3182.24" y2="1564.05" xlink:href="#linear-gradient-2"/><linearGradient id="linear-gradient-64" x1="2388.32" y1="2682.08" x2="3135.74" y2="1532.7" xlink:href="#linear-gradient-2"/><linearGradient id="linear-gradient-65" x1="2194.35" y1="2551.88" x2="2939.4" y2="1406.14" xlink:href="#linear-gradient-2"/></defs><g id="Mask"><rect class="cls-1" width="3295" height="2272"/><rect class="cls-2" x="1128" width="1024" height="1024" rx="225.02"/><path class="cls-3" d="M1939.36,602a143.5,143.5,0,0,1-4.5-14.35c-3.95-17.1,5-22.91,15-22.67,13.41.33,25.55,9.72,67.78,3.41,0-.12.05-.24.07-.36h.07c.68-4.06,1.25-8.14,1.76-12.25.13-1,.21-2.08.33-3.12q.64-5.82,1-11.68c.1-1.37.19-2.74.26-4.11.26-4.87.44-9.76.44-14.69,0-103.64-57.83-195.8-147.54-254.41-63.49-41.36-142.9-65.93-229-65.93-69.47,0-134.54,16-190.43,43.85-49,45.55-102.31,135.59-28.36,287.91,0,0-84.11,71.7-45.4,217.6q2.09,1.74,4.2,3.47c.93.75,1.86,1.5,2.8,2.24l.46.37,3,2.35,2.09,1.59q4.55,3.45,9.21,6.78,1.9,1.37,3.82,2.7,5.86,4.08,11.91,8l.89.58c4.24,2.7,8.57,5.29,12.94,7.83,1.34.78,2.68,1.53,4,2.29q5.14,2.91,10.42,5.68c1.21.64,2.41,1.29,3.63,1.92q6.85,3.51,13.89,6.79c1,.48,2.06.92,3.09,1.39q5.74,2.61,11.61,5.06c1.48.61,3,1.22,4.44,1.82q6.33,2.55,12.78,4.91c.75.27,1.48.57,2.23.84,5,1.79,10.06,3.47,15.17,5.08,1.41.45,2.83.87,4.25,1.3q6,1.82,12,3.46c1.44.39,2.87.8,4.31,1.17,5.26,1.37,10.56,2.67,15.91,3.84.7.16,1.41.29,2.12.44q7.08,1.51,14.27,2.8l4.82.83q6.67,1.13,13.44,2c1.14.16,2.28.34,3.42.48q8.33,1.06,16.75,1.81c1.38.13,2.76.22,4.14.33q6.67.52,13.4.86c1.64.08,3.27.17,4.91.23,5.76.22,11.54.37,17.36.37s11.59-.15,17.35-.37c1.64-.06,3.28-.15,4.92-.23q6.72-.33,13.39-.86c1.38-.11,2.77-.2,4.14-.33q8.43-.75,16.75-1.81c1.15-.14,2.28-.32,3.42-.48q6.76-.91,13.45-2l4.82-.83q7.18-1.29,14.26-2.8c.71-.15,1.42-.28,2.12-.44,5.36-1.17,10.65-2.47,15.91-3.84,1.45-.37,2.88-.78,4.31-1.17q6.08-1.65,12-3.46c1.41-.43,2.84-.85,4.25-1.3,5.1-1.61,10.16-3.29,15.16-5.08.75-.27,1.49-.57,2.24-.84q6.45-2.36,12.77-4.91,2.23-.9,4.44-1.82,5.87-2.46,11.61-5.06c1-.47,2.07-.91,3.09-1.39q7-3.27,13.89-6.79c1.22-.63,2.42-1.28,3.64-1.92q5.27-2.76,10.41-5.68c1.35-.76,2.7-1.51,4-2.29,4.38-2.54,8.71-5.13,12.94-7.83l.89-.58c4-2.58,8-5.24,11.92-8,1.28-.89,2.54-1.79,3.81-2.7q4.68-3.33,9.21-6.78c1.08-.82,2.18-1.63,3.25-2.46q5.81-4.53,11.41-9.26c.94-.79,1.84-1.61,2.77-2.41q4.35-3.75,8.54-7.62,1.76-1.61,3.48-3.24,4.51-4.28,8.85-8.69c.57-.58,1.17-1.15,1.74-1.74,3.34-3.45,6.58-7,9.75-10.55,1-1.12,2-2.25,2.94-3.38q3.51-4.07,6.86-8.21c.93-1.15,1.87-2.28,2.77-3.44q4.39-5.58,8.53-11.3c.56-.78,1.08-1.58,1.63-2.37q3.36-4.77,6.52-9.64,1.29-2,2.53-4,3-4.71,5.73-9.51c.57-1,1.17-2,1.73-3,.13-.23.27-.45.39-.68l0,0a.25.25,0,0,1,0-.07C1965.4,642.23,1946.68,621.33,1939.36,602Z"/><path class="cls-4" d="M1426.21,533.61c-74-152.32-20.65-242.36,28.36-287.91C1342.94,301.37,1268,404.48,1268,522.48c0,89.52,43.14,170.46,112.71,228.63l.12.1C1342.1,605.31,1426.21,533.61,1426.21,533.61Z"/><path class="cls-5" d="M1478.57,264.86c14.85-6.46,26.08-15.24,42-20,2.94-.88,17,6.82,20,6,36.62-10.09,73.43-17,114-17,29.43,0,51.51-8.43,79-3,28.8,5.68,53-7.15,78.86,3.79-24.88-31.16-63.51-102.73-274.88-120.16-80.91-6.68-157.3,23-179,37-43,27.73-111,98.21-56.14,235.7C1337.93,322.05,1403.6,297.44,1478.57,264.86Z"/><path class="cls-6" d="M1523.15,775.29c-56.55-2.7-97.12-17.34-142.05-41.12-5.22,89.93-29.75,110.05-36.3,136.87-4.8,19.69,2.84,39.85,38.39,39.43a292.58,292.58,0,0,0,30.33-2.72c87.87-13,212.22-124.84,235.27-160C1603.71,765.08,1576.57,777.84,1523.15,775.29Z"/><path class="cls-7" d="M1387.81,756.92c-.94-.74-1.87-1.49-2.8-2.24Z"/><path class="cls-8" d="M1390.13,758.77l1.15.87-3-2.35C1388.89,757.78,1389.5,758.28,1390.13,758.77Z"/><path class="cls-9" d="M1645,201.85c86.15,0,165.56,24.57,229,65.93-63.56-41.53-143.13-66.22-229.48-66.22-68.93,0-133.49,15.81-189.08,43.28l-.92.86C1510.46,217.83,1575.53,201.85,1645,201.85Z"/><path class="cls-10" d="M1388.27,757.29l-.46-.37Z"/><path class="cls-11" d="M2021.59,522.19c0,4.93-.18,9.82-.44,14.69-.07,1.37-.16,2.74-.26,4.11q-.41,5.87-1,11.68c-.12,1-.2,2.08-.33,3.12-.51,4.11-1.08,8.19-1.76,12.25h-.07c0,.12,0,.24-.07.36l.57-.08a276.16,276.16,0,0,0,3.83-45.85c0-103.81-58-196.1-148-254.7C1963.76,326.39,2021.59,418.55,2021.59,522.19Z"/><path class="cls-12" d="M1985.18,659.81c-.12.23-.26.45-.39.68-.56,1-1.16,2-1.73,3q-2.77,4.8-5.73,9.51-1.24,2-2.53,4-3.16,4.88-6.52,9.64c-.55.79-1.07,1.59-1.63,2.37q-4.12,5.73-8.53,11.3c-.9,1.16-1.84,2.29-2.77,3.44q-3.36,4.16-6.86,8.21c-1,1.13-2,2.26-2.94,3.38-3.17,3.57-6.41,7.1-9.75,10.55-.57.59-1.17,1.16-1.74,1.74q-4.33,4.43-8.85,8.69-1.73,1.63-3.48,3.24-4.2,3.87-8.54,7.62c-.93.8-1.83,1.62-2.77,2.41q-5.6,4.74-11.41,9.26c-1.07.83-2.17,1.64-3.25,2.46q-4.53,3.45-9.21,6.78c-1.27.91-2.53,1.81-3.81,2.7-3.92,2.72-7.88,5.38-11.92,8l-.89.58c-4.23,2.7-8.56,5.29-12.94,7.83-1.33.78-2.68,1.53-4,2.29q-5.14,2.91-10.41,5.68c-1.22.64-2.42,1.29-3.64,1.92q-6.86,3.51-13.89,6.79c-1,.48-2.06.92-3.09,1.39q-5.75,2.61-11.61,5.06-2.21.91-4.44,1.82-6.33,2.55-12.77,4.91c-.75.27-1.49.57-2.24.84-5,1.79-10.06,3.47-15.16,5.08-1.41.45-2.84.87-4.25,1.3q-6,1.82-12,3.46c-1.43.39-2.86.8-4.31,1.17-5.26,1.37-10.55,2.67-15.91,3.84-.7.16-1.41.29-2.12.44q-7.08,1.51-14.26,2.8l-4.82.83q-6.69,1.13-13.45,2c-1.14.16-2.27.34-3.42.48q-8.31,1.06-16.75,1.81c-1.37.13-2.76.22-4.14.33q-6.66.52-13.39.86c-1.64.08-3.28.17-4.92.23-5.76.22-11.53.37-17.35.37s-11.6-.15-17.36-.37c-1.64-.06-3.27-.15-4.91-.23q-6.73-.33-13.4-.86c-1.38-.11-2.76-.2-4.14-.33q-8.43-.75-16.75-1.81c-1.14-.14-2.28-.32-3.42-.48q-6.77-.91-13.44-2l-4.82-.83q-7.18-1.29-14.27-2.8c-.71-.15-1.42-.28-2.12-.44-5.35-1.17-10.65-2.47-15.91-3.84-1.44-.37-2.87-.78-4.31-1.17q-6.06-1.65-12-3.46c-1.42-.43-2.84-.85-4.25-1.3-5.11-1.61-10.17-3.29-15.17-5.08-.75-.27-1.48-.57-2.23-.84q-6.45-2.36-12.78-4.91c-1.49-.6-3-1.21-4.44-1.82q-5.86-2.46-11.61-5.06c-1-.47-2.07-.91-3.09-1.39q-7-3.27-13.89-6.79c-1.22-.63-2.42-1.28-3.63-1.92q-5.27-2.76-10.42-5.68c-1.35-.76-2.69-1.51-4-2.29-4.37-2.54-8.7-5.13-12.94-7.83l-.89-.58q-6.06-3.87-11.91-8-1.92-1.34-3.82-2.7-4.66-3.33-9.21-6.78l-2.09-1.59c67,51.86,156,83.47,253.72,83.47,150.3,0,280.06-74.8,340.62-183l-.42-.37a.25.25,0,0,0,0,.07Z"/><path class="cls-13" d="M1380.69,751.11q2.14,1.8,4.32,3.57-2.12-1.73-4.2-3.47Z"/><path class="cls-14" d="M1939.36,602a143.5,143.5,0,0,1-4.5-14.35c-3.95-17.1,5-22.91,15-22.67,13.41.33,25.55,9.72,67.78,3.41,0-.12.05-.24.07-.36h.07c.68-4.06,1.25-8.14,1.76-12.25.13-1,.21-2.08.33-3.12q.64-5.82,1-11.68c.1-1.37.19-2.74.26-4.11.26-4.87.44-9.76.44-14.69,0-103.64-57.83-195.8-147.54-254.41-63.49-41.36-142.9-65.93-229-65.93-69.47,0-134.54,16-190.43,43.85-49,45.55-102.31,135.59-28.36,287.91,0,0-84.11,71.7-45.4,217.6q2.09,1.74,4.2,3.47c.93.75,1.86,1.5,2.8,2.24l.46.37,3,2.35,2.09,1.59q4.55,3.45,9.21,6.78,1.9,1.37,3.82,2.7,5.86,4.08,11.91,8l.89.58c4.24,2.7,8.57,5.29,12.94,7.83,1.34.78,2.68,1.53,4,2.29q5.14,2.91,10.42,5.68c1.21.64,2.41,1.29,3.63,1.92q6.85,3.51,13.89,6.79c1,.48,2.06.92,3.09,1.39q5.74,2.61,11.61,5.06c1.48.61,3,1.22,4.44,1.82q6.33,2.55,12.78,4.91c.75.27,1.48.57,2.23.84,5,1.79,10.06,3.47,15.17,5.08,1.41.45,2.83.87,4.25,1.3q6,1.82,12,3.46c1.44.39,2.87.8,4.31,1.17,5.26,1.37,10.56,2.67,15.91,3.84.7.16,1.41.29,2.12.44q7.08,1.51,14.27,2.8l4.82.83q6.67,1.13,13.44,2c1.14.16,2.28.34,3.42.48q8.33,1.06,16.75,1.81c1.38.13,2.76.22,4.14.33q6.67.52,13.4.86c1.64.08,3.27.17,4.91.23,5.76.22,11.54.37,17.36.37s11.59-.15,17.35-.37c1.64-.06,3.28-.15,4.92-.23q6.72-.33,13.39-.86c1.38-.11,2.77-.2,4.14-.33q8.43-.75,16.75-1.81c1.15-.14,2.28-.32,3.42-.48q6.76-.91,13.45-2l4.82-.83q7.18-1.29,14.26-2.8c.71-.15,1.42-.28,2.12-.44,5.36-1.17,10.65-2.47,15.91-3.84,1.45-.37,2.88-.78,4.31-1.17q6.08-1.65,12-3.46c1.41-.43,2.84-.85,4.25-1.3,5.1-1.61,10.16-3.29,15.16-5.08.75-.27,1.49-.57,2.24-.84q6.45-2.36,12.77-4.91,2.23-.9,4.44-1.82,5.87-2.46,11.61-5.06c1-.47,2.07-.91,3.09-1.39q7-3.27,13.89-6.79c1.22-.63,2.42-1.28,3.64-1.92q5.27-2.76,10.41-5.68c1.35-.76,2.7-1.51,4-2.29,4.38-2.54,8.71-5.13,12.94-7.83l.89-.58c4-2.58,8-5.24,11.92-8,1.28-.89,2.54-1.79,3.81-2.7q4.68-3.33,9.21-6.78c1.08-.82,2.18-1.63,3.25-2.46q5.81-4.53,11.41-9.26c.94-.79,1.84-1.61,2.77-2.41q4.35-3.75,8.54-7.62,1.76-1.61,3.48-3.24,4.51-4.28,8.85-8.69c.57-.58,1.17-1.15,1.74-1.74,3.34-3.45,6.58-7,9.75-10.55,1-1.12,2-2.25,2.94-3.38q3.51-4.07,6.86-8.21c.93-1.15,1.87-2.28,2.77-3.44q4.39-5.58,8.53-11.3c.56-.78,1.08-1.58,1.63-2.37q3.36-4.77,6.52-9.64,1.29-2,2.53-4,3-4.71,5.73-9.51c.57-1,1.17-2,1.73-3,.13-.23.27-.45.39-.68l0,0a.25.25,0,0,1,0-.07C1965.4,642.23,1946.68,621.33,1939.36,602Z"/><path class="cls-15" d="M1771.5,383.13c-48,0-86.84,40.53-86.84,90.52s38.88,90.51,86.84,90.51,86.84-40.52,86.84-90.51S1819.46,383.13,1771.5,383.13ZM1764.33,533c-26.73,0-48.4-22.58-48.4-50.45s21.67-50.45,48.4-50.45a46.63,46.63,0,0,1,25.66,7.82,20.46,20.46,0,0,0-10.92,18.15c0,11.34,8.82,20.54,19.71,20.54a19.08,19.08,0,0,0,13.06-5.4,53.09,53.09,0,0,1,.9,9.34C1812.74,510.42,1791.07,533,1764.33,533Z"/><rect class="cls-15" width="1024" height="1024" rx="225.02"/><path class="cls-16" d="M2152,1767.27c-11.49,673-1012.6,672.92-1024,0C1139.49,1094.25,2140.6,1094.36,2152,1767.27Z"/><path class="cls-17" d="M1976.36,1842c-7.09-15.94-9.5-38.13,10.48-37,13.41.33,25.55,9.72,67.78,3.41,0-.12.05-.24.07-.36h.07c74.46-436.8-814.34-528.34-591.55-34.43,0,0-84.11,71.7-45.4,217.6,176.3,148.59,486.87,114.56,604.37-91.4l0,0a.25.25,0,0,1,0-.07C2002.4,1882.22,1983.68,1861.32,1976.36,1842Z"/><path class="cls-18" d="M1463.21,1773.6c-74-152.32-20.65-242.36,28.36-287.91-205.71,91.88-252.6,367-73.76,505.51C1379.1,1845.3,1463.21,1773.6,1463.21,1773.6Z"/><path class="cls-19" d="M1515.57,1504.85c14.85-6.46,26.08-15.24,42-20,2.94-.88,17,6.82,20,6,36.62-10.09,73.43-17,114-17,29.43,0,51.51-8.42,79-3,28.8,5.68,53-7.15,78.86,3.79-54.58-142.71-644.2-222.11-510,152.54C1374.93,1562,1440.6,1537.43,1515.57,1504.85Z"/><path class="cls-20" d="M1560.15,2015.28c-56.55-2.7-97.12-17.34-142.05-41.12-5.22,89.93-29.75,110-36.3,136.87-4.8,19.7,2.84,39.85,38.39,39.43,96.58,4.5,237.63-121.59,265.6-162.7C1640.71,2005.07,1613.57,2017.83,1560.15,2015.28Z"/><path class="cls-21" d="M1424.81,1996.91c-.94-.74-1.87-1.49-2.8-2.24C1422.94,1995.43,1423.88,1996.17,1424.81,1996.91Z"/><path class="cls-22" d="M1427.13,1998.76c.38.3.77.58,1.15.87l-3-2.35C1425.89,1997.77,1426.5,1998.27,1427.13,1998.76Z"/><path class="cls-23" d="M1682,1441.84c86.15,0,165.56,24.57,229,65.93-112.19-77.65-297.15-88.36-419.48-22.08C1547.46,1457.82,1612.53,1441.84,1682,1441.84Z"/><path class="cls-24" d="M1425.27,1997.28l-.46-.37Z"/><path class="cls-25" d="M2058.59,1762.19a291.82,291.82,0,0,1-3.83,45.84h-.07c0,.12-.05.24-.07.36l.57-.08c20.47-119.16-40.74-234-144.14-300.55C2000.76,1566.38,2058.59,1658.54,2058.59,1762.19Z"/><path class="cls-26" d="M2022.18,1899.8c-115.18,201.89-416.08,238.69-593.9,99.83,166.1,142.65,499.6,91.83,594.34-99.54l-.42-.38a.25.25,0,0,0,0,.07Z"/><path class="cls-27" d="M1417.69,1991.1q2.14,1.8,4.32,3.57C1420.56,1993.49,1419.12,1992.29,1417.69,1991.1Z"/><path class="cls-28" d="M1976.36,1842c-7.09-15.94-9.5-38.13,10.48-37,13.41.33,25.55,9.72,67.78,3.41,0-.12.05-.24.07-.36h.07c74.46-436.8-814.34-528.34-591.55-34.43,0,0-84.11,71.7-45.4,217.6,176.3,148.59,486.87,114.56,604.37-91.4l0,0a.25.25,0,0,1,0-.07C2002.4,1882.22,1983.68,1861.32,1976.36,1842Z"/><path class="cls-15" d="M1808.5,1623.12c-114.12,2-114.1,179.08,0,181C1922.05,1803.67,1922,1623.59,1808.5,1623.12ZM1801.33,1773c-82.22-5.68-48.12-133.87,25.66-93.07-25.63,14-1,53.3,21.85,33.28C1854.88,1743.4,1831.35,1773.43,1801.33,1773Z"/><path class="cls-15" d="M1024,1760c-11.49,673-1012.6,672.92-1024,0C11.49,1087,1012.6,1087.08,1024,1760Z"/><path class="cls-29" d="M848.36,1834.74c-7.09-16-9.5-38.13,10.48-37,13.41.32,25.55,9.72,67.78,3.4,0-.12,0-.23.07-.35h.07c74.46-436.8-814.34-528.34-591.55-34.44,0,0-84.11,71.71-45.4,217.61,176.3,148.58,486.87,114.56,604.37-91.4l0,0,0-.06C874.4,1875,855.68,1854.05,848.36,1834.74Z"/><path class="cls-30" d="M335.21,1766.32C261.26,1614,314.56,1524,363.57,1478.42c-205.71,91.87-252.6,367-73.76,505.51C251.1,1838,335.21,1766.32,335.21,1766.32Z"/><path class="cls-31" d="M387.57,1497.58c14.85-6.46,26.08-15.24,42-20,2.94-.88,17,6.81,20,6,36.62-10.09,73.43-17,114-17,29.43,0,51.51-8.43,79-3,28.8,5.68,53-7.16,78.86,3.78-54.58-142.7-644.2-222.11-510,152.54C246.93,1554.76,312.6,1530.16,387.57,1497.58Z"/><path class="cls-32" d="M432.15,2008c-56.55-2.7-97.12-17.34-142-41.12-5.22,89.93-29.75,110-36.3,136.86-4.8,19.7,2.84,39.85,38.39,39.44,96.58,4.5,237.63-121.6,265.6-162.71C512.71,1997.79,485.57,2010.55,432.15,2008Z"/><path class="cls-33" d="M296.81,1989.64l-2.8-2.24Z"/><path class="cls-34" d="M299.13,1991.49l1.15.87c-1-.78-2-1.57-3-2.36C297.89,1990.5,298.5,1991,299.13,1991.49Z"/><path class="cls-35" d="M554,1434.56c86.15,0,165.56,24.58,229,65.94-112.19-77.65-297.15-88.36-419.48-22.08C419.46,1450.55,484.53,1434.56,554,1434.56Z"/><path class="cls-36" d="M297.27,1990l-.46-.36Z"/><path class="cls-37" d="M930.59,1754.91a292,292,0,0,1-3.83,45.85h-.07c0,.12-.05.23-.07.35l.57-.08c20.47-119.16-40.74-234-144.14-300.54C872.76,1559.11,930.59,1651.27,930.59,1754.91Z"/><path class="cls-38" d="M894.18,1892.53C779,2094.41,478.1,2131.22,300.28,1992.36c166.1,142.64,499.6,91.82,594.34-99.55l-.42-.37,0,.06Z"/><path class="cls-39" d="M289.69,1983.83q2.15,1.8,4.32,3.57Z"/><path class="cls-40" d="M848.36,1834.74c-7.09-16-9.5-38.13,10.48-37,13.41.32,25.55,9.72,67.78,3.4,0-.12,0-.23.07-.35h.07c74.46-436.8-814.34-528.34-591.55-34.44,0,0-84.11,71.71-45.4,217.61,176.3,148.58,486.87,114.56,604.37-91.4l0,0,0-.06C874.4,1875,855.68,1854.05,848.36,1834.74Z"/><path class="cls-15" d="M680.5,1615.85c-114.12,2-114.1,179.07,0,181C794.05,1796.39,794,1616.31,680.5,1615.85Zm-7.17,149.87c-82.22-5.68-48.12-133.87,25.66-93.08-25.63,14-1,53.31,21.85,33.28C726.88,1736.12,703.35,1766.15,673.33,1765.72Z"/><path class="cls-41" d="M811.36,602c-7.09-15.94-9.5-38.13,10.48-37,13.41.33,25.55,9.72,67.78,3.41,0-.12,0-.24.07-.36h.07C964.22,131.24,75.42,39.7,298.21,533.61c0,0-84.11,71.7-45.4,217.6,176.3,148.59,486.87,114.56,604.37-91.4l0,0a.25.25,0,0,1,0-.07C837.4,642.23,818.68,621.33,811.36,602Z"/><path class="cls-42" d="M298.21,533.61c-73.95-152.32-20.65-242.36,28.36-287.91-205.71,91.88-252.6,367-73.76,505.51C214.1,605.31,298.21,533.61,298.21,533.61Z"/><path class="cls-43" d="M350.57,264.86c14.85-6.46,26.08-15.24,42-20,2.94-.88,17,6.82,20,6,36.62-10.09,73.43-17,114-17,29.43,0,51.51-8.43,79-3,28.8,5.68,53-7.15,78.86,3.79-54.58-142.71-644.2-222.11-510,152.54C209.93,322.05,275.6,297.44,350.57,264.86Z"/><path class="cls-44" d="M395.15,775.29c-56.55-2.7-97.12-17.34-142-41.12C247.88,824.1,223.35,844.22,216.8,871c-4.8,19.69,2.84,39.85,38.39,39.43,96.58,4.5,237.63-121.59,265.6-162.7C475.71,765.08,448.57,777.84,395.15,775.29Z"/><path class="cls-45" d="M259.81,756.92c-.94-.74-1.87-1.49-2.8-2.24Z"/><path class="cls-46" d="M262.13,758.77l1.15.87-3-2.35C260.89,757.78,261.5,758.28,262.13,758.77Z"/><path class="cls-47" d="M517,201.85c86.15,0,165.56,24.57,229,65.93C633.86,190.13,448.9,179.42,326.57,245.7,382.46,217.83,447.53,201.85,517,201.85Z"/><path class="cls-48" d="M260.27,757.29l-.46-.37Z"/><path class="cls-49" d="M893.59,522.19A291.84,291.84,0,0,1,889.76,568h-.07c0,.12-.05.24-.07.36l.57-.08c20.47-119.16-40.74-234-144.14-300.55C835.76,326.39,893.59,418.55,893.59,522.19Z"/><path class="cls-50" d="M857.18,659.81C742,861.7,441.1,898.5,263.28,759.64c166.1,142.65,499.6,91.83,594.34-99.55l-.42-.37a.25.25,0,0,0,0,.07Z"/><path class="cls-51" d="M252.69,751.11q2.15,1.8,4.32,3.57C255.56,753.5,254.12,752.3,252.69,751.11Z"/><path class="cls-52" d="M811.36,602c-7.09-15.94-9.5-38.13,10.48-37,13.41.33,25.55,9.72,67.78,3.41,0-.12,0-.24.07-.36h.07C964.22,131.24,75.42,39.7,298.21,533.61c0,0-84.11,71.7-45.4,217.6,176.3,148.59,486.87,114.56,604.37-91.4l0,0a.25.25,0,0,1,0-.07C837.4,642.23,818.68,621.33,811.36,602Z"/><path class="cls-15" d="M643.5,383.13c-114.12,2-114.1,179.07,0,181C757.05,563.68,757,383.6,643.5,383.13ZM636.33,533c-82.22-5.68-48.12-133.87,25.66-93.08-25.63,14.05-1,53.31,21.85,33.29C689.88,503.4,666.35,533.43,636.33,533Z"/><path class="cls-53" d="M3164.59,534.19a291.84,291.84,0,0,1-3.83,45.85h-.07c0,.12-.05.24-.07.36l.57-.08c20.47-119.16-40.74-234-144.14-300.55C3106.76,338.39,3164.59,430.55,3164.59,534.19Z"/><rect class="cls-54" x="2271" width="1024" height="1024" rx="225.02"/><path class="cls-55" d="M3082.36,602c-7.09-15.94-9.5-38.13,10.48-37,13.41.33,25.55,9.72,67.78,3.41,0-.12.05-.24.07-.36h.07c74.46-436.8-814.34-528.34-591.55-34.43,0,0-84.11,71.7-45.4,217.6,176.3,148.59,486.87,114.56,604.37-91.4l0,0a.25.25,0,0,1,0-.07C3108.4,642.23,3089.68,621.33,3082.36,602Z"/><path class="cls-56" d="M2569.21,533.61c-73.95-152.32-20.65-242.36,28.36-287.91-205.71,91.88-252.6,367-73.76,505.51C2485.1,605.31,2569.21,533.61,2569.21,533.61Z"/><path class="cls-56" d="M2621.57,264.86c14.85-6.46,26.08-15.24,42-20,2.94-.88,17,6.82,20,6,36.62-10.09,73.43-17,114-17,29.43,0,51.51-8.43,79-3,28.8,5.68,53-7.15,78.86,3.79-54.58-142.71-644.2-222.11-510,152.54C2480.93,322.05,2546.6,297.44,2621.57,264.86Z"/><path class="cls-56" d="M2666.15,775.29c-56.55-2.7-97.12-17.34-142.05-41.12-5.22,89.93-29.75,110.05-36.3,136.87-4.8,19.69,2.84,39.85,38.39,39.43,96.58,4.5,237.63-121.59,265.6-162.7C2746.71,765.08,2719.57,777.84,2666.15,775.29Z"/><path class="cls-57" d="M2530.81,756.92c-.94-.74-1.87-1.49-2.8-2.24Z"/><path class="cls-58" d="M2533.13,758.77l1.15.87-3-2.35C2531.89,757.78,2532.5,758.28,2533.13,758.77Z"/><path class="cls-59" d="M2788,201.85c86.15,0,165.56,24.57,229.05,65.93-112.19-77.65-297.15-88.36-419.48-22.08C2653.46,217.83,2718.53,201.85,2788,201.85Z"/><path class="cls-60" d="M2531.27,757.29l-.46-.37Z"/><path class="cls-61" d="M3128.18,659.81C3013,861.7,2712.1,898.5,2534.28,759.64c166.1,142.65,499.6,91.83,594.34-99.55l-.42-.37a.25.25,0,0,0,0,.07Z"/><path class="cls-62" d="M2523.69,751.11q2.14,1.8,4.32,3.57C2526.56,753.5,2525.12,752.3,2523.69,751.11Z"/><path class="cls-63" d="M3082.36,602c-7.09-15.94-9.5-38.13,10.48-37,13.41.33,25.55,9.72,67.78,3.41,0-.12.05-.24.07-.36h.07c74.46-436.8-814.34-528.34-591.55-34.43,0,0-84.11,71.7-45.4,217.6,176.3,148.59,486.87,114.56,604.37-91.4l0,0a.25.25,0,0,1,0-.07C3108.4,642.23,3089.68,621.33,3082.36,602Z"/><path class="cls-15" d="M2914.5,383.13c-114.12,2-114.1,179.07,0,181C3028.05,563.68,3028,383.6,2914.5,383.13ZM2907.33,533c-82.22-5.68-48.12-133.87,25.66-93.08-25.63,14.05-1,53.31,21.85,33.29C2960.88,503.4,2937.35,533.43,2907.33,533Z"/><path class="cls-54" d="M3295,1767.27c-11.49,673-1012.6,672.92-1024,0C2282.49,1094.25,3283.6,1094.36,3295,1767.27Z"/><path class="cls-64" d="M3114.36,1842c-7.09-15.94-9.5-38.13,10.48-37,13.41.33,25.55,9.72,67.78,3.41,0-.12.05-.24.07-.36h.07c74.46-436.8-814.34-528.34-591.55-34.43,0,0-84.11,71.7-45.4,217.6,176.3,148.59,486.87,114.56,604.37-91.4l0,0a.25.25,0,0,1,0-.07C3140.4,1882.22,3121.68,1861.32,3114.36,1842Z"/><path class="cls-56" d="M2712.55,1354.48c-169.66-1.56-305.67,62.62-235.14,272.7a175.21,175.21,0,0,1,12.28-19.4c-83.4,121.66-49.43,292.57,66.12,383.42-38.71-145.9,45.4-217.6,45.4-217.6-54.2-111.65-40-189.83-9.31-241.56,33.65-14.29,69.23-32,103.67-47.19,2.94-.88,17,6.82,20,6,36.62-10.09,73.43-17,114-17,29.43,0,51.51-8.42,79-3,28.8,5.68,53-7.15,78.86,3.79C2962.55,1443.48,2923.92,1371.91,2712.55,1354.48Z"/><path class="cls-56" d="M2698.15,2015.28c-56.55-2.7-97.12-17.34-142.05-41.12-5.22,89.93-29.75,110-36.3,136.87-4.8,19.7,2.84,39.85,38.39,39.43,96.58,4.5,237.63-121.59,265.6-162.7C2778.71,2005.07,2751.57,2017.83,2698.15,2015.28Z"/><path class="cls-65" d="M2562.81,1996.91c-.94-.74-1.87-1.49-2.8-2.24C2560.94,1995.43,2561.88,1996.17,2562.81,1996.91Z"/><path class="cls-66" d="M2565.13,1998.76c.38.3.77.58,1.15.87l-3-2.35C2563.89,1997.77,2564.5,1998.27,2565.13,1998.76Z"/><path class="cls-67" d="M2563.27,1997.28l-.46-.37Z"/><path class="cls-68" d="M3196.59,1762.19a291.82,291.82,0,0,1-3.83,45.84h-.07c0,.12-.05.24-.07.36l.57-.08c20.47-119.16-40.74-234-144.14-300.55C3138.76,1566.38,3196.59,1658.54,3196.59,1762.19Z"/><path class="cls-69" d="M3160.18,1899.8c-115.18,201.89-416.08,238.69-593.9,99.83,166.1,142.65,499.6,91.83,594.34-99.54l-.42-.38a.25.25,0,0,0,0,.07Z"/><path class="cls-70" d="M2555.69,1991.1q2.14,1.8,4.32,3.57C2558.56,1993.49,2557.12,1992.29,2555.69,1991.1Z"/><path class="cls-63" d="M3114.36,1842c-7.09-15.94-9.5-38.13,10.48-37,13.41.33,25.55,9.72,67.78,3.41,0-.12.05-.24.07-.36h.07c74.46-436.8-814.34-528.34-591.55-34.43,0,0-84.11,71.7-45.4,217.6,176.3,148.59,486.87,114.56,604.37-91.4l0,0a.25.25,0,0,1,0-.07C3140.4,1882.22,3121.68,1861.32,3114.36,1842Z"/><path class="cls-15" d="M2946.5,1623.12c-114.12,2-114.1,179.08,0,181C3060.05,1803.67,3060,1623.59,2946.5,1623.12ZM2939.33,1773c-82.22-5.68-48.12-133.87,25.66-93.07-25.63,14-1,53.3,21.85,33.28C2992.88,1743.4,2969.35,1773.43,2939.33,1773Z"/></g></svg>