<svg xmlns="http://www.w3.org/2000/svg" xmlns:xlink="http://www.w3.org/1999/xlink" viewBox="0 0 3968.73 972.73"><defs><style>.cls-1{fill:url(#linear-gradient);}.cls-2{fill:url(#Degradado_sin_nombre_53);}.cls-3{fill:#fff;}.cls-4{fill:#5e28c8;}.cls-5{fill:url(#linear-gradient-2);}.cls-6{fill:url(#linear-gradient-3);}.cls-7{fill:url(#Degradado_sin_nombre_53-2);}</style><linearGradient id="linear-gradient" x1="3555.36" y1="-3204.27" x2="3555.36" y2="-4155.87" gradientTransform="translate(-2059 4177)" gradientUnits="userSpaceOnUse"><stop offset="0" stop-color="#e1ecf8"/><stop offset="1" stop-color="#fff"/></linearGradient><linearGradient id="Degradado_sin_nombre_53" x1="1453.99" y1="217.04" x2="1453.99" y2="956.81" gradientUnits="userSpaceOnUse"><stop offset="0" stop-color="#1b00d4"/><stop offset="1" stop-color="#fe7fff"/></linearGradient><linearGradient id="linear-gradient-2" x1="5541.36" y1="-3204.27" x2="5541.36" y2="-4155.87" xlink:href="#linear-gradient"/><linearGradient id="linear-gradient-3" x1="3439.99" y1="217.04" x2="3439.99" y2="956.81" gradientUnits="userSpaceOnUse"><stop offset="0" stop-color="#260f9f"/><stop offset="0.64" stop-color="#14b2fe"/><stop offset="1" stop-color="#5becfd"/></linearGradient><linearGradient id="Degradado_sin_nombre_53-2" x1="2489.36" y1="-55.13" x2="2489.36" y2="1307.78" xlink:href="#Degradado_sin_nombre_53"/></defs><g id="Mask"><rect class="cls-1" x="1010" width="972.73" height="972.73" rx="215"/><path class="cls-2" d="M1892.71,467.73c-2.82-51.37-14.65-99.18-42-140.52-32.61-49.22-76.51-79.23-126.09-99.35-44.74-18.15-90.65-21.22-137.75-18.4-68.75,4.12-133.74,22.11-193.41,62.41-28.67,19.37-54,43.52-72.39,76.81-13.13,23.69-26.62,47.83-43.34,68-12.82,15.44-28.26,24.53-43.12,24.54-16.51,0-32.29-11.29-43-37.6-2.49-6.13-5.15-12.17-7.85-18.19-1.61-6.83.77-10.35,9-15.78,24.61-16.17,36-47.3,36.57-79.36h0s0-.09,0-.13q.09-5.76-.27-11.54c1.18-23.19,13.57-25.68,13.57-25.68-13.14-4.74-35,7.33-35,7.33v.23a76.17,76.17,0,0,0-14.84,7.57c-29.85,19.71-35,55.48-35.28,76.74-3.18-2.88-6.29-5.83-8.51-9.51-13.33-22.05-29.25-39.93-49.88-50.52h0c-11.83-7.54-31.83-9.42-40-9.89l-.87,0c-1-.06-1.83-.08-2.29-.09h-.5c-13.17,0-26.06,5-40.68,9.18,5.05,3.81,7.47,6.56,10.34,7.63,14,5.18,22.33,17.28,29.1,31.29,4.42,9.16,8,18.83,12.46,28,13.11,27.1,32,46.68,58.54,52.13l3.13.64c7.18,25.94,12.52,52.82,21.93,77.62a419.92,419.92,0,0,0,35,71.64l-.08.18c39.67,64.35,94.32,110.17,161.38,140.16,44.23,19.78,91,26,137.3,35,11.91,2.31,16.79,8.43,17.32,22.62,1.33,35-12.5,62.74-29.16,89.52-3.1,5-5.73,10.37-8.58,15.57l3,4.51c7.78-3.41,16.09-5.72,23.24-10.42,20.81-13.64,42.12-26.68,61.41-42.9,18.53-15.58,35.77-33.72,51.66-52.9,9.24-11.17,18.61-17.9,31.56-19.55C1691,727.32,1747.07,718,1797.37,683c30.46-21.19,57.06-45.4,73.41-84.19C1888.46,556.88,1895.23,513.64,1892.71,467.73Zm-449.63,59.88a40.33,40.33,0,1,1,40.33-40.33A40.33,40.33,0,0,1,1443.08,527.61Zm147.84,0a40.33,40.33,0,1,1,40.33-40.33A40.33,40.33,0,0,1,1590.92,527.61Zm143.23,0a40.33,40.33,0,1,1,40.33-40.33A40.33,40.33,0,0,1,1734.15,527.61Z"/><rect class="cls-3" width="972.73" height="972.73" rx="215"/><path class="cls-4" d="M882.71,467.73c-2.82-51.37-14.65-99.18-42.05-140.52C808.05,278,764.15,248,714.57,227.86c-44.74-18.15-90.65-21.22-137.75-18.4-68.75,4.12-133.74,22.11-193.41,62.41-28.67,19.37-54,43.52-72.39,76.81-13.13,23.69-26.62,47.83-43.34,68-12.82,15.44-28.26,24.53-43.12,24.54-16.51,0-32.29-11.29-43-37.6-2.49-6.13-5.15-12.17-7.85-18.19-1.61-6.83.77-10.35,9.05-15.78,24.61-16.17,36-47.3,36.57-79.36h0s0-.09,0-.13q.09-5.76-.27-11.54c1.18-23.19,13.57-25.68,13.57-25.68-13.14-4.74-35,7.33-35,7.33v.23A76.17,76.17,0,0,0,182.77,268c-29.85,19.71-35.05,55.48-35.28,76.74-3.18-2.88-6.29-5.83-8.51-9.51-13.33-22.05-29.25-39.93-49.88-50.52h0c-11.83-7.54-31.83-9.42-40-9.89l-.87,0c-1.05-.06-1.83-.08-2.29-.09h-.5c-13.17,0-26.06,5-40.68,9.18,5.05,3.81,7.47,6.56,10.34,7.63,14,5.18,22.33,17.28,29.1,31.29,4.42,9.16,8,18.83,12.46,28,13.11,27.1,32,46.68,58.54,52.13l3.13.64c7.18,25.94,12.52,52.82,21.93,77.62a419.92,419.92,0,0,0,35,71.64l-.08.18c39.67,64.35,94.32,110.17,161.38,140.16,44.23,19.78,91,26,137.3,35,11.91,2.31,16.79,8.43,17.32,22.62,1.33,35-12.5,62.74-29.16,89.52-3.1,5-5.73,10.37-8.58,15.57l3,4.51c7.78-3.41,16.09-5.72,23.24-10.42,20.81-13.64,42.12-26.68,61.41-42.9,18.53-15.58,35.77-33.72,51.66-52.9,9.24-11.17,18.61-17.9,31.56-19.55C681,727.32,737.07,718,787.37,683c30.46-21.19,57.06-45.4,73.41-84.19C878.46,556.88,885.23,513.64,882.71,467.73ZM433.08,527.61a40.33,40.33,0,1,1,40.33-40.33A40.33,40.33,0,0,1,433.08,527.61Zm147.84,0a40.33,40.33,0,1,1,40.33-40.33A40.33,40.33,0,0,1,580.92,527.61Zm143.23,0a40.33,40.33,0,1,1,40.33-40.33A40.33,40.33,0,0,1,724.15,527.61Z"/><rect class="cls-5" x="2996" width="972.73" height="972.73" rx="215"/><path class="cls-6" d="M3878.71,467.73c-2.82-51.37-14.65-99.18-42.05-140.52-32.61-49.22-76.51-79.23-126.09-99.35-44.74-18.15-90.65-21.22-137.75-18.4-68.75,4.12-133.74,22.11-193.41,62.41-28.67,19.37-54,43.52-72.39,76.81-13.13,23.69-26.62,47.83-43.34,68-12.82,15.44-28.26,24.53-43.12,24.54-16.51,0-32.29-11.29-43-37.6-2.49-6.13-5.15-12.17-7.85-18.19-1.61-6.83.77-10.35,9.05-15.78,24.61-16.17,36-47.3,36.57-79.36h0s0-.09,0-.13q.09-5.76-.27-11.54c1.18-23.19,13.57-25.68,13.57-25.68-13.14-4.74-35,7.33-35,7.33v.23a76.17,76.17,0,0,0-14.84,7.57c-29.85,19.71-35.05,55.48-35.28,76.74-3.18-2.88-6.29-5.83-8.51-9.51-13.33-22.05-29.25-39.93-49.88-50.52h0c-11.83-7.54-31.83-9.42-40-9.89l-.87,0c-1-.06-1.83-.08-2.29-.09h-.5c-13.17,0-26.06,5-40.68,9.18,5.05,3.81,7.47,6.56,10.34,7.63,14,5.18,22.33,17.28,29.1,31.29,4.42,9.16,8,18.83,12.46,28,13.11,27.1,32,46.68,58.54,52.13l3.13.64c7.18,25.94,12.52,52.82,21.93,77.62a419.92,419.92,0,0,0,35,71.64l-.08.18c39.67,64.35,94.32,110.17,161.38,140.16,44.23,19.78,91.05,26,137.3,35,11.91,2.31,16.79,8.43,17.32,22.62,1.33,35-12.5,62.74-29.16,89.52-3.1,5-5.73,10.37-8.58,15.57l3,4.51c7.78-3.41,16.09-5.72,23.24-10.42,20.81-13.64,42.12-26.68,61.41-42.9,18.53-15.58,35.77-33.72,51.66-52.9,9.24-11.17,18.61-17.9,31.56-19.55C3677,727.32,3733.07,718,3783.37,683c30.46-21.19,57.06-45.4,73.41-84.19C3874.46,556.88,3881.23,513.64,3878.71,467.73Zm-449.63,59.88a40.33,40.33,0,1,1,40.33-40.33A40.33,40.33,0,0,1,3429.08,527.61Zm147.84,0a40.33,40.33,0,1,1,40.33-40.33A40.33,40.33,0,0,1,3576.92,527.61Zm143.23,0a40.33,40.33,0,1,1,40.33-40.33A40.33,40.33,0,0,1,3720.15,527.61Z"/><circle class="cls-7" cx="2489.36" cy="486.36" r="486"/><path class="cls-3" d="M2856.74,472.13c-2.63-48-13.68-92.63-39.27-131.24-30.46-46-71.46-74-117.76-92.79-41.79-16.95-84.67-19.82-128.66-17.18-64.21,3.85-124.91,20.64-180.64,58.29-26.78,18.08-50.39,40.65-67.61,71.73-12.27,22.13-24.86,44.68-40.48,63.48-12,14.42-26.39,22.91-40.28,22.92-15.41,0-30.15-10.55-40.14-35.12-2.33-5.73-4.81-11.37-7.33-17-1.51-6.37.72-9.66,8.44-14.74,23-15.1,33.64-44.17,34.16-74.12h0a.53.53,0,0,0,0-.13c.06-3.59,0-7.19-.25-10.77,1.11-21.67,12.68-24,12.68-24-12.28-4.42-32.72,6.85-32.72,6.85v.21a71.45,71.45,0,0,0-13.86,7.07c-27.87,18.41-32.73,51.82-32.94,71.68a41.25,41.25,0,0,1-8-8.89c-12.44-20.6-27.31-37.29-46.58-47.18h0c-11-7.05-29.73-8.8-37.38-9.24l-.81,0c-1-.05-1.71-.07-2.14-.08h-.46c-12.31,0-24.35,4.66-38,8.57,4.72,3.56,7,6.13,9.65,7.13,13,4.84,20.87,16.14,27.19,29.23,4.13,8.55,7.5,17.58,11.63,26.13,12.25,25.3,29.93,43.59,54.67,48.69l2.93.59c6.71,24.23,11.7,49.34,20.48,72.5a391,391,0,0,0,32.67,66.9l-.08.18c37.05,60.1,88.09,102.9,150.73,130.9,41.3,18.47,85,24.27,128.23,32.65,11.13,2.15,15.68,7.86,16.18,21.12,1.24,32.68-11.68,58.6-27.24,83.61-2.89,4.65-5.35,9.68-8,14.54l2.82,4.21c7.26-3.18,15-5.34,21.71-9.73,19.43-12.74,39.34-24.92,57.35-40.07,17.31-14.55,33.41-31.49,48.24-49.41,8.64-10.43,17.39-16.71,29.49-18.26,52.91-6.75,105.31-15.48,152.29-48.15,28.45-19.78,53.29-42.4,68.56-78.63C2852.77,555.4,2859.1,515,2856.74,472.13ZM2436.8,528.06a37.67,37.67,0,1,1,37.67-37.67A37.67,37.67,0,0,1,2436.8,528.06Zm138.08,0a37.67,37.67,0,1,1,37.67-37.67A37.67,37.67,0,0,1,2574.88,528.06Zm133.78,0a37.67,37.67,0,1,1,37.66-37.67A37.67,37.67,0,0,1,2708.66,528.06Z"/></g></svg>