<svg xmlns="http://www.w3.org/2000/svg" xmlns:xlink="http://www.w3.org/1999/xlink" viewBox="0 0 1024 1024"><defs><style>.cls-1,.cls-4{opacity:0.5;}.cls-2,.cls-3,.cls-4{fill:none;stroke:#fff;stroke-miterlimit:10;}.cls-2,.cls-4{stroke-linecap:square;}.cls-5{fill:#fff;}.cls-6{fill:url(#linear-gradient);}.cls-7{fill:url(#linear-gradient-2);}.cls-8{fill:url(#linear-gradient-3);}.cls-9{fill:url(#linear-gradient-4);}</style><linearGradient id="linear-gradient" x1="617.85" y1="494.91" x2="57.93" y2="-65.01" gradientUnits="userSpaceOnUse"><stop offset="0" stop-color="#5e147d"/><stop offset="1" stop-color="#39d5ff"/></linearGradient><linearGradient id="linear-gradient-2" x1="389.83" y1="737.83" x2="293.69" y2="946.36" xlink:href="#linear-gradient"/><linearGradient id="linear-gradient-3" x1="-28.71" y1="1362.93" x2="716.33" y2="217.19" xlink:href="#linear-gradient"/><linearGradient id="linear-gradient-4" x1="307.57" y1="514.43" x2="0.72" y2="514.43" xlink:href="#linear-gradient"/></defs><g id="Grid"><g class="cls-1"><line class="cls-2" x1="1024" y2="1024"/><line class="cls-2" x2="1024" y2="1024"/><line class="cls-2" x1="958" x2="958" y2="1024"/><line class="cls-2" x1="706" x2="706" y2="1024"/><line class="cls-2" x1="512" x2="512" y2="1024"/><line class="cls-2" x1="318" x2="318" y2="1024"/><line class="cls-2" x1="66" x2="66" y2="1024"/><line class="cls-2" y1="66" x2="1024" y2="66"/><line class="cls-2" y1="318" x2="1024" y2="318"/><line class="cls-2" y1="512" x2="1024" y2="512"/><line class="cls-2" y1="706" x2="1024" y2="706"/><line class="cls-2" y1="958" x2="1024" y2="958"/><circle class="cls-3" cx="512" cy="512" r="194"/><circle class="cls-3" cx="512" cy="512" r="274"/><circle class="cls-3" cx="512" cy="512" r="446"/></g><rect class="cls-4" width="1024" height="1024" rx="225.02"/></g><g id="Mask"><rect class="cls-5" width="1024" height="1024" rx="225.02"/><path class="cls-6" d="M352,264.86c14.86-6.46,26.08-15.24,42-20,2.94-.88,17,6.82,20,6,36.62-10.09,73.43-17,114-17,29.43,0,51.51-8.43,79-3,28.8,5.68,53-7.15,78.87,3.79C661,203.49,622.35,131.92,411,114.49c-80.91-6.68-157.29,23-179,37-43,27.73-111,98.21-56.14,235.7C211.37,322.05,277,297.44,352,264.86Z"/><path class="cls-7" d="M396.58,775.29c-56.54-2.7-97.12-17.34-142-41.12-5.23,89.93-29.76,110.05-36.3,136.87-4.81,19.69,2.84,39.85,38.38,39.43A292.33,292.33,0,0,0,287,907.75c87.87-13,212.23-124.84,235.27-160C477.15,765.08,450,777.84,396.58,775.29Z"/><path class="cls-8" d="M812.36,601.74a144.32,144.32,0,0,1-4.5-14.35c-4-17.1,5-22.92,15-22.67,13.47.33,25.65,9.81,68.35,3.32A276,276,0,0,0,895,522.19c0-177.08-168.8-320.63-377-320.63S141,345.11,141,522.19s168.8,320.63,377,320.63c150.3,0,280.06-74.8,340.62-183C838.67,642.24,819.73,621.18,812.36,601.74Z"/><path class="cls-5" d="M644.5,382.85c-48,0-86.84,40.52-86.84,90.51s38.88,90.51,86.84,90.51,86.84-40.52,86.84-90.51S692.46,382.85,644.5,382.85Zm-7.17,149.87c-26.73,0-48.4-22.59-48.4-50.45s21.67-50.45,48.4-50.45A46.55,46.55,0,0,1,663,439.64a20.46,20.46,0,0,0-10.92,18.15c0,11.34,8.82,20.54,19.71,20.54a19.09,19.09,0,0,0,13.06-5.41,53.3,53.3,0,0,1,.9,9.35C685.74,510.13,664.07,532.72,637.33,532.72Z"/><path class="cls-9" d="M254.57,522.83c-45.09-86-46.35-152.21-30.32-201.38C172.17,376.41,141,446.29,141,522.36c0,68.93,25.6,132.77,69.15,185C185.56,585.36,254.57,522.83,254.57,522.83Z"/></g></svg>