<svg xmlns="http://www.w3.org/2000/svg" xmlns:xlink="http://www.w3.org/1999/xlink" viewBox="0 0 1024 1024"><defs><style>.cls-1,.cls-4{opacity:0.5;}.cls-2,.cls-3,.cls-4,.cls-6{fill:none;}.cls-2,.cls-3,.cls-4{stroke:#fff;stroke-miterlimit:10;}.cls-2,.cls-4{stroke-linecap:square;}.cls-5{fill:url(#linear-gradient);}.cls-7{fill:url(#linear-gradient-2);}.cls-8{fill:url(#linear-gradient-3);}.cls-9{fill:url(#linear-gradient-4);}.cls-10{fill:url(#linear-gradient-5);}.cls-11{fill:url(#linear-gradient-6);}.cls-12{fill:url(#linear-gradient-7);}.cls-13{fill:url(#linear-gradient-8);}.cls-14{fill:#fff;}.cls-15{fill:url(#linear-gradient-9);}.cls-16{fill:url(#linear-gradient-10);}.cls-17{fill:url(#linear-gradient-11);}</style><linearGradient id="linear-gradient" x1="1013.46" y1="533.95" x2="1014.97" y2="536.57" gradientUnits="userSpaceOnUse"><stop offset="0" stop-color="#00baf1"/><stop offset="1" stop-color="#1b75bb"/></linearGradient><linearGradient id="linear-gradient-2" x1="304.4" y1="763.07" x2="309.36" y2="763.07" gradientUnits="userSpaceOnUse"><stop offset="0" stop-color="#5e147d"/><stop offset="1" stop-color="#39d5ff"/></linearGradient><linearGradient id="linear-gradient-3" x1="315.78" y1="771.34" x2="334.08" y2="771.34" xlink:href="#linear-gradient-2"/><linearGradient id="linear-gradient-4" x1="310.41" y1="766.01" x2="315.58" y2="766.01" xlink:href="#linear-gradient-2"/><linearGradient id="linear-gradient-5" x1="299.76" y1="759.87" x2="301.14" y2="759.87" xlink:href="#linear-gradient-2"/><linearGradient id="linear-gradient-6" x1="309.86" y1="1199.59" x2="309.93" y2="-276.34" xlink:href="#linear-gradient-2"/><linearGradient id="linear-gradient-7" x1="315.66" y1="1199.59" x2="315.7" y2="449.18" xlink:href="#linear-gradient-2"/><linearGradient id="linear-gradient-8" x1="302.75" y1="1199.59" x2="302.82" y2="-276.34" xlink:href="#linear-gradient-2"/><linearGradient id="linear-gradient-9" x1="471.3" y1="704.7" x2="452.52" y2="939.48" xlink:href="#linear-gradient-2"/><linearGradient id="linear-gradient-10" x1="-294.45" y1="1199.88" x2="996.86" y2="37.71" xlink:href="#linear-gradient-2"/><linearGradient id="linear-gradient-11" x1="430.39" y1="417.85" x2="-246.58" y2="417.85" xlink:href="#linear-gradient-2"/></defs><g id="Grid"><g class="cls-1"><line class="cls-2" x1="1024" y2="1024"/><line class="cls-2" x2="1024" y2="1024"/><line class="cls-2" x1="958" x2="958" y2="1024"/><line class="cls-2" x1="706" x2="706" y2="1024"/><line class="cls-2" x1="512" x2="512" y2="1024"/><line class="cls-2" x1="318" x2="318" y2="1024"/><line class="cls-2" x1="66" x2="66" y2="1024"/><line class="cls-2" y1="66" x2="1024" y2="66"/><line class="cls-2" y1="318" x2="1024" y2="318"/><line class="cls-2" y1="512" x2="1024" y2="512"/><line class="cls-2" y1="706" x2="1024" y2="706"/><line class="cls-2" y1="958" x2="1024" y2="958"/><circle class="cls-3" cx="512" cy="512" r="194"/><circle class="cls-3" cx="512" cy="512" r="274"/><circle class="cls-3" cx="512" cy="512" r="446"/></g><rect class="cls-4" width="1024" height="1024" rx="225.02"/></g><g id="Mask"><path class="cls-5" d="M1014.22,536.76a1.5,1.5,0,0,0,0-3,1.5,1.5,0,0,0,0,3Z"/><rect class="cls-6" width="1024" height="1024" rx="225.02"/><path class="cls-7" d="M309.36,764.29q-2.49-1.2-5-2.43C306,762.68,307.7,763.49,309.36,764.29Z"/><path class="cls-8" d="M315.78,767.32q9,4.18,18.3,8h0Q324.79,771.49,315.78,767.32Z"/><path class="cls-9" d="M315.58,767.23c-1.73-.81-3.46-1.62-5.17-2.44C312.12,765.61,313.85,766.42,315.58,767.23Z"/><path class="cls-10" d="M301.14,760.22l-1.38-.7Z"/><path class="cls-11" d="M310.41,764.79l-1.05-.5Z"/><path class="cls-12" d="M315.78,767.32l-.2-.09Z"/><path class="cls-13" d="M304.4,761.86l-3.26-1.64Z"/><rect class="cls-14" width="1024" height="1024" rx="225.02"/><path class="cls-15" d="M483.4,728.21c-77.93,0-151.09-15-214.42-41.31C312.92,798.75,254.25,822.49,244.45,855c-1.34,16.83,6.07,40.38,55.36,45.71q16.24,1.11,31.77,1h0c195.05-1.85,326.26-166.39,355.64-210.45C626.38,714.82,557,728.21,483.4,728.21Z"/><path class="cls-16" d="M731.26,170.84a481.23,481.23,0,0,0-124.52-40.17,527.75,527.75,0,0,0-93.59-8.29A521.4,521.4,0,0,0,386,137.91c-41,20.16-168.38,101.56-92.59,309,0,0-52.66,40.79-61,119.39-8.54,80.27,24.39,124,29.73,131.54q7.86,4.69,16,9.11l1.3.7,3.08,1.64q2.34,1.21,4.69,2.42l1,.5c1.62.82,3.25,1.64,4.89,2.44l.19.1q8.5,4.17,17.29,8v0c59.85,26.3,129,41.32,202.62,41.32,69.58,0,135.12-13.4,192.62-37.06l.24-.38c53-21.88,99.08-52.49,135.17-89.35C850.75,627,859.39,617,867.09,607.5a295.94,295.94,0,0,0,31.59-50.8c2.05-4.22,4-8.48,5.85-12.79l-53.48-51.33-10.52-10.09,82.37-12.22,1-.15a252.66,252.66,0,0,0,1.46-27.05C925.34,328.26,847.81,227.54,731.26,170.84Z"/><path class="cls-14" d="M627.25,291a98.51,98.51,0,1,0,98.51,98.51A98.51,98.51,0,0,0,627.25,291Zm-8.13,163.12a54.91,54.91,0,1,1,29.11-101.31A22.18,22.18,0,1,0,673,389a54.57,54.57,0,0,1-53.89,65.08Z"/><path class="cls-17" d="M386,137.91a483,483,0,0,0-60.22,19.41C192.15,210.41,100.66,318.5,100.66,443.22c0,95.5,53.66,181.25,138.79,240q6.21,4.29,12.63,8.38,4.95,3.15,10,6.17c-5.34-7.57-33-50.89-29.73-131.54,13.48-77.88,61-119.39,61-119.39C217.61,239.47,345,158.07,386,137.91Z"/></g></svg>