<?xml version="1.0" encoding="utf-8"?>
<!-- Generator: Adobe Illustrator 25.4.1, SVG Export Plug-In . SVG Version: 6.00 Build 0)  -->
<svg version="1.1" id="Layer_1" xmlns="http://www.w3.org/2000/svg" xmlns:xlink="http://www.w3.org/1999/xlink" x="0px" y="0px"
	 viewBox="0 0 1002.4 998.9" style="enable-background:new 0 0 1002.4 998.9;" xml:space="preserve">
<style type="text/css">
	.st0{fill:url(#SVGID_1_);}
	.st1{fill:url(#SVGID_00000005247378314749012170000001549773976256262064_);}
	.st2{fill:#FFFFFF;}
	.st3{fill:#5E28C8;}
	.st4{fill:url(#SVGID_00000068658432642307030650000012382117232156436155_);}
	.st5{fill:url(#SVGID_00000033366779700468855150000002262374353872398983_);}
	.st6{fill:url(#SVGID_00000052819032852587386110000004881913215962203795_);}
	.st7{fill:url(#SVGID_00000059308410703679928990000000512340468089874064_);}
	.st8{fill:url(#SVGID_00000151519338226490742400000014957877498020826265_);}
	.st9{fill:#1C2E46;}
	.st10{fill:#142232;}
</style>
<linearGradient id="SVGID_1_" gradientUnits="userSpaceOnUse" x1="1651.4663" y1="2553.7998" x2="1651.4663" y2="3505.3999" gradientTransform="matrix(1 0 0 -1 -2059 1906.1699)">
	<stop  offset="0" style="stop-color:#E1ECF8"/>
	<stop  offset="1" style="stop-color:#FFFFFF"/>
</linearGradient>
<path class="st0" d="M-678.9-1620.4h542.7c118.7,0,215,96.3,215,215v542.7c0,118.7-96.3,215-215,215h-542.7
	c-118.7,0-215-96.3-215-215v-542.7C-893.9-1524.1-797.6-1620.4-678.9-1620.4z"/>
<linearGradient id="SVGID_00000127738419285866976290000009110312545747426492_" gradientUnits="userSpaceOnUse" x1="-449.8995" y1="-867.5101" x2="-449.8995" y2="-1607.2802" gradientTransform="matrix(1 0 0 -1 0 -2270.8301)">
	<stop  offset="0" style="stop-color:#1B00D4"/>
	<stop  offset="1" style="stop-color:#FE7FFF"/>
</linearGradient>
<path style="fill:url(#SVGID_00000127738419285866976290000009110312545747426492_);" d="M-11.2-1152.6
	c-2.8-51.4-14.7-99.2-42-140.5c-32.6-49.2-76.5-79.2-126.1-99.4c-44.7-18.1-90.7-21.2-137.8-18.4c-68.8,4.1-133.7,22.1-193.4,62.4
	c-28.7,19.4-54,43.5-72.4,76.8c-13.1,23.7-26.6,47.8-43.3,68c-12.8,15.4-28.3,24.5-43.1,24.5c-16.5,0-32.3-11.3-43-37.6
	c-2.5-6.1-5.2-12.2-7.8-18.2c-1.6-6.8,0.8-10.4,9-15.8c24.6-16.2,36-47.3,36.6-79.4l0,0c0,0,0-0.1,0-0.1c0.1-3.8,0-7.7-0.3-11.5
	c1.2-23.2,13.6-25.7,13.6-25.7c-13.1-4.7-35,7.3-35,7.3v0.2c-5.2,2-10.2,4.5-14.8,7.6c-29.8,19.7-35,55.5-35.3,76.7
	c-3.2-2.9-6.3-5.8-8.5-9.5c-13.3-22.1-29.2-39.9-49.9-50.5l0,0c-11.8-7.5-31.8-9.4-40-9.9h-0.9c-1-0.1-1.8-0.1-2.3-0.1h-0.5
	c-13.2,0-26.1,5-40.7,9.2c5,3.8,7.5,6.6,10.3,7.6c14,5.2,22.3,17.3,29.1,31.3c4.4,9.2,8,18.8,12.5,28c13.1,27.1,32,46.7,58.5,52.1
	l3.1,0.6c7.2,25.9,12.5,52.8,21.9,77.6c9.4,24.9,21.1,48.9,35,71.6l-0.1,0.2c39.7,64.4,94.3,110.2,161.4,140.2
	c44.2,19.8,91,26,137.3,35c11.9,2.3,16.8,8.4,17.3,22.6c1.3,35-12.5,62.7-29.2,89.5c-3.1,5-5.7,10.4-8.6,15.6l3,4.5
	c7.8-3.4,16.1-5.7,23.2-10.4c20.8-13.6,42.1-26.7,61.4-42.9c18.5-15.6,35.8-33.7,51.7-52.9c9.2-11.2,18.6-17.9,31.6-19.5
	c56.7-7.4,112.7-16.7,163-51.7c30.5-21.2,57.1-45.4,73.4-84.2C-15.4-1063.5-8.7-1106.7-11.2-1152.6z M-460.8-1092.8
	c-22.3,0-40.3-18.1-40.3-40.3s18.1-40.3,40.3-40.3c22.3,0,40.3,18.1,40.3,40.3l0,0C-420.5-1110.8-438.5-1092.8-460.8-1092.8z
	 M-313-1092.8c-22.3,0-40.3-18.1-40.3-40.3s18.1-40.3,40.3-40.3c22.3,0,40.3,18.1,40.3,40.3l0,0
	C-272.6-1110.8-290.7-1092.8-313-1092.8L-313-1092.8z M-169.7-1092.8c-22.3,0-40.3-18.1-40.3-40.3s18.1-40.3,40.3-40.3
	c22.3,0,40.3,18.1,40.3,40.3l0,0C-129.4-1110.8-147.5-1092.8-169.7-1092.8L-169.7-1092.8z"/>
<path class="st2" d="M-1688.9-1620.4h542.7c118.7,0,215,96.3,215,215v542.7c0,118.7-96.3,215-215,215h-542.7
	c-118.7,0-215-96.3-215-215v-542.7C-1903.9-1524.1-1807.6-1620.4-1688.9-1620.4z"/>
<path class="st3" d="M-1021.2-1152.6c-2.8-51.4-14.7-99.2-42-140.5c-32.6-49.2-76.5-79.2-126.1-99.4
	c-44.7-18.2-90.7-21.2-137.8-18.4c-68.8,4.1-133.7,22.1-193.4,62.4c-28.7,19.4-54,43.5-72.4,76.8c-13.1,23.7-26.6,47.8-43.3,68
	c-12.8,15.4-28.3,24.5-43.1,24.5c-16.5,0-32.3-11.3-43-37.6c-2.5-6.1-5.1-12.2-7.8-18.2c-1.6-6.8,0.8-10.4,9.1-15.8
	c24.6-16.2,36-47.3,36.6-79.4l0,0c0,0,0-0.1,0-0.1c0.1-3.8,0-7.7-0.3-11.5c1.2-23.2,13.6-25.7,13.6-25.7c-13.1-4.7-35,7.3-35,7.3
	v0.2c-5.2,1.9-10.2,4.5-14.9,7.5c-29.8,19.7-35,55.5-35.3,76.7c-3.2-2.9-6.3-5.8-8.5-9.5c-13.3-22-29.2-39.9-49.9-50.5l0,0
	c-11.8-7.5-31.8-9.4-40-9.9h-0.9c-1.1-0.1-1.8-0.1-2.3-0.1h-0.5c-13.2,0-26.1,5-40.7,9.2c5,3.8,7.5,6.6,10.3,7.6
	c14,5.2,22.3,17.3,29.1,31.3c4.4,9.2,8,18.8,12.5,28c13.1,27.1,32,46.7,58.5,52.1l3.1,0.6c7.2,25.9,12.5,52.8,21.9,77.6
	c9.4,24.9,21.1,48.9,35,71.6l-0.1,0.2c39.7,64.4,94.3,110.2,161.4,140.2c44.2,19.8,91,26,137.3,35c11.9,2.3,16.8,8.4,17.3,22.6
	c1.3,35-12.5,62.7-29.2,89.5c-3.1,5-5.7,10.4-8.6,15.6l3,4.5c7.8-3.4,16.1-5.7,23.2-10.4c20.8-13.6,42.1-26.7,61.4-42.9
	c18.5-15.6,35.8-33.7,51.7-52.9c9.2-11.2,18.6-17.9,31.6-19.5c56.7-7.3,112.8-16.6,163.1-51.6c30.5-21.2,57.1-45.4,73.4-84.2
	C-1025.4-1063.5-1018.7-1106.7-1021.2-1152.6z M-1470.8-1092.8c-22.3,0-40.3-18.1-40.3-40.3c0-22.3,18.1-40.3,40.3-40.3
	c22.3,0,40.3,18.1,40.3,40.3C-1430.5-1110.8-1448.5-1092.8-1470.8-1092.8L-1470.8-1092.8z M-1323-1092.8
	c-22.3,0-40.3-18.1-40.3-40.3c0-22.3,18.1-40.3,40.3-40.3c22.3,0,40.3,18.1,40.3,40.3C-1282.6-1110.8-1300.7-1092.8-1323-1092.8
	C-1323-1092.8-1323-1092.8-1323-1092.8z M-1179.7-1092.8c-22.3,0-40.3-18.1-40.3-40.3c0-22.3,18.1-40.3,40.3-40.3
	c22.3,0,40.3,18.1,40.3,40.3C-1139.4-1110.8-1157.5-1092.8-1179.7-1092.8L-1179.7-1092.8z"/>
<linearGradient id="SVGID_00000016785137692243187980000009494502908211590823_" gradientUnits="userSpaceOnUse" x1="3637.4663" y1="2553.7998" x2="3637.4663" y2="3505.3999" gradientTransform="matrix(1 0 0 -1 -2059 1906.1699)">
	<stop  offset="0" style="stop-color:#E1ECF8"/>
	<stop  offset="1" style="stop-color:#FFFFFF"/>
</linearGradient>
<path style="fill:url(#SVGID_00000016785137692243187980000009494502908211590823_);" d="M1307.1-1620.4h542.7
	c118.7,0,215,96.3,215,215v542.7c0,118.7-96.3,215-215,215h-542.7c-118.7,0-215-96.3-215-215v-542.7
	C1092.1-1524.1,1188.4-1620.4,1307.1-1620.4z"/>
<linearGradient id="SVGID_00000102522489062528469450000010304841009134940561_" gradientUnits="userSpaceOnUse" x1="1536.1005" y1="-867.5101" x2="1536.1005" y2="-1607.2802" gradientTransform="matrix(1 0 0 -1 0 -2270.8301)">
	<stop  offset="0" style="stop-color:#260F9F"/>
	<stop  offset="0.64" style="stop-color:#14B2FE"/>
	<stop  offset="1" style="stop-color:#5BECFD"/>
</linearGradient>
<path style="fill:url(#SVGID_00000102522489062528469450000010304841009134940561_);" d="M1974.8-1152.6
	c-2.8-51.4-14.6-99.2-42.1-140.5c-32.6-49.2-76.5-79.2-126.1-99.4c-44.7-18.1-90.6-21.2-137.8-18.4c-68.8,4.1-133.7,22.1-193.4,62.4
	c-28.7,19.4-54,43.5-72.4,76.8c-13.1,23.7-26.6,47.8-43.3,68c-12.8,15.4-28.3,24.5-43.1,24.5c-16.5,0-32.3-11.3-43-37.6
	c-2.5-6.1-5.1-12.2-7.9-18.2c-1.6-6.8,0.8-10.4,9.1-15.8c24.6-16.2,36-47.3,36.6-79.4l0,0c0,0,0-0.1,0-0.1c0.1-3.8,0-7.7-0.3-11.5
	c1.2-23.2,13.6-25.7,13.6-25.7c-13.1-4.7-35,7.3-35,7.3v0.2c-5.2,2-10.2,4.5-14.8,7.6c-29.9,19.7-35.1,55.5-35.3,76.7
	c-3.2-2.9-6.3-5.8-8.5-9.5c-13.3-22.1-29.2-39.9-49.9-50.5l0,0c-11.8-7.5-31.8-9.4-40-9.9h-0.9c-1-0.1-1.8-0.1-2.3-0.1h-0.5
	c-13.2,0-26.1,5-40.7,9.2c5.1,3.8,7.5,6.6,10.3,7.6c14,5.2,22.3,17.3,29.1,31.3c4.4,9.2,8,18.8,12.5,28c13.1,27.1,32,46.7,58.5,52.1
	l3.1,0.6c7.2,25.9,12.5,52.8,21.9,77.6c9.4,24.9,21.1,48.9,35,71.6l-0.1,0.2c39.7,64.4,94.3,110.2,161.4,140.2
	c44.2,19.8,91.1,26,137.3,35c11.9,2.3,16.8,8.4,17.3,22.6c1.3,35-12.5,62.7-29.2,89.5c-3.1,5-5.7,10.4-8.6,15.6l3,4.5
	c7.8-3.4,16.1-5.7,23.2-10.4c20.8-13.6,42.1-26.7,61.4-42.9c18.5-15.6,35.8-33.7,51.7-52.9c9.2-11.2,18.6-17.9,31.6-19.5
	c56.7-7.4,112.7-16.7,163-51.7c30.5-21.2,57.1-45.4,73.4-84.2C1970.6-1063.5,1977.3-1106.7,1974.8-1152.6z M1525.2-1092.8
	c-22.3,0-40.3-18.1-40.3-40.3c0-22.3,18.1-40.3,40.3-40.3c22.3,0,40.3,18.1,40.3,40.3C1565.5-1110.8,1547.5-1092.8,1525.2-1092.8
	L1525.2-1092.8z M1673-1092.8c-22.3,0-40.3-18.1-40.3-40.3c0-22.3,18.1-40.3,40.3-40.3c22.3,0,40.3,18.1,40.3,40.3
	C1713.4-1110.8,1695.3-1092.8,1673-1092.8L1673-1092.8L1673-1092.8z M1816.3-1092.8c-22.3,0-40.3-18.1-40.3-40.3
	c0-22.3,18.1-40.3,40.3-40.3c22.3,0,40.3,18.1,40.3,40.3C1856.6-1110.8,1838.5-1092.8,1816.3-1092.8L1816.3-1092.8L1816.3-1092.8z"
	/>
<linearGradient id="SVGID_00000017494876346661440240000004260843908823821735_" gradientUnits="userSpaceOnUse" x1="585.4614" y1="-595.3401" x2="585.4614" y2="-1958.2502" gradientTransform="matrix(1 0 0 -1 0 -2270.8301)">
	<stop  offset="0" style="stop-color:#1B00D4"/>
	<stop  offset="1" style="stop-color:#FE7FFF"/>
</linearGradient>
<circle style="fill:url(#SVGID_00000017494876346661440240000004260843908823821735_);" cx="585.5" cy="-1134" r="486"/>
<path class="st2" d="M952.8-1148.2c-2.6-48-13.7-92.6-39.3-131.2c-30.5-46-71.5-74-117.8-92.8c-41.8-16.9-84.7-19.8-128.7-17.2
	c-64.2,3.8-124.9,20.6-180.6,58.3c-26.8,18.1-50.4,40.6-67.6,71.7c-12.3,22.1-24.9,44.7-40.5,63.5c-12,14.4-26.4,22.9-40.3,22.9
	c-15.4,0-30.1-10.6-40.1-35.1c-2.3-5.7-4.8-11.4-7.3-17c-1.5-6.4,0.7-9.7,8.4-14.7c23-15.1,33.6-44.2,34.2-74.1l0,0c0,0,0-0.1,0-0.1
	c0.1-3.6,0-7.2-0.2-10.8c1.1-21.7,12.7-24,12.7-24c-12.3-4.4-32.7,6.8-32.7,6.8v0.2c-4.9,1.8-9.5,4.2-13.9,7.1
	c-27.9,18.4-32.7,51.8-32.9,71.7c-3.1-2.6-5.8-5.6-8-8.9c-12.4-20.6-27.3-37.3-46.6-47.2l0,0c-11-7.1-29.7-8.8-37.4-9.2h-0.8
	c-1-0.1-1.7-0.1-2.1-0.1h-0.5c-12.3,0-24.4,4.7-38,8.6c4.7,3.6,7,6.1,9.7,7.1c13,4.8,20.9,16.1,27.2,29.2
	c4.1,8.5,7.5,17.6,11.6,26.1c12.2,25.3,29.9,43.6,54.7,48.7l2.9,0.6c6.7,24.2,11.7,49.3,20.5,72.5c8.7,23.3,19.7,45.7,32.7,66.9
	l-0.1,0.2c37.1,60.1,88.1,102.9,150.7,130.9c41.3,18.5,85,24.3,128.2,32.7c11.1,2.2,15.7,7.9,16.2,21.1
	c1.2,32.7-11.7,58.6-27.2,83.6c-2.9,4.7-5.4,9.7-8,14.5l2.8,4.2c7.3-3.2,15-5.3,21.7-9.7c19.4-12.7,39.3-24.9,57.4-40.1
	c17.3-14.5,33.4-31.5,48.2-49.4c8.6-10.4,17.4-16.7,29.5-18.3c52.9-6.8,105.3-15.5,152.3-48.2c28.4-19.8,53.3-42.4,68.6-78.6
	C948.9-1065,955.2-1105.4,952.8-1148.2z M532.9-1092.3c-20.8,0-37.7-16.9-37.7-37.7c0-20.8,16.9-37.7,37.7-37.7
	c20.8,0,37.7,16.9,37.7,37.7c0,0,0,0,0,0C570.6-1109.2,553.7-1092.3,532.9-1092.3z M671-1092.3c-20.8,0-37.7-16.9-37.7-37.7
	c0-20.8,16.9-37.7,37.7-37.7c20.8,0,37.7,16.9,37.7,37.7c0,0,0,0,0,0C708.7-1109.2,691.8-1092.3,671-1092.3
	C671-1092.3,671-1092.3,671-1092.3L671-1092.3z M804.8-1092.3c-20.8,0-37.7-16.9-37.7-37.7c0-20.8,16.9-37.7,37.7-37.7
	c20.8,0,37.7,16.9,37.7,37.7c0,0,0,0,0,0C842.4-1109.2,825.6-1092.3,804.8-1092.3L804.8-1092.3z"/>
<linearGradient id="SVGID_00000049217511785941154150000000727809238745515392_" gradientUnits="userSpaceOnUse" x1="1552.0049" y1="933.7999" x2="1552.0049" y2="1885.3999" gradientTransform="matrix(1 0 0 -1 -2059 1906.1699)">
	<stop  offset="0" style="stop-color:#E1ECF8"/>
	<stop  offset="1" style="stop-color:#FFFFFF"/>
</linearGradient>
<path style="fill:url(#SVGID_00000049217511785941154150000000727809238745515392_);" d="M-778.4-0.4h542.7
	c118.7,0,215,96.3,215,215v542.7c0,118.7-96.3,215-215,215h-542.7c-118.7,0-215-96.3-215-215V214.6C-993.4,95.9-897.1-0.4-778.4-0.4
	z"/>
<linearGradient id="SVGID_00000173153683086899747200000006145736934620052398_" gradientUnits="userSpaceOnUse" x1="-549.3608" y1="-2487.5103" x2="-549.3608" y2="-3227.2803" gradientTransform="matrix(1 0 0 -1 0 -2270.8301)">
	<stop  offset="0" style="stop-color:#142232"/>
	<stop  offset="1" style="stop-color:#1C2E46"/>
</linearGradient>
<path style="fill:url(#SVGID_00000173153683086899747200000006145736934620052398_);" d="M-110.7,467.4
	c-2.8-51.4-14.7-99.2-42-140.5c-32.6-49.2-76.5-79.2-126.1-99.4c-44.7-18.1-90.7-21.2-137.8-18.4c-68.8,4.1-133.7,22.1-193.4,62.4
	c-28.7,19.4-54,43.5-72.4,76.8c-13.1,23.7-26.6,47.8-43.3,68c-12.8,15.4-28.3,24.5-43.1,24.5c-16.5,0-32.3-11.3-43-37.6
	c-2.5-6.1-5.2-12.2-7.8-18.2c-1.6-6.8,0.8-10.4,9-15.8c24.6-16.2,36-47.3,36.6-79.4l0,0c0,0,0-0.1,0-0.1c0.1-3.8,0-7.7-0.3-11.5
	c1.2-23.2,13.6-25.7,13.6-25.7c-13.1-4.7-35,7.3-35,7.3v0.2c-5.2,2-10.2,4.5-14.8,7.6c-29.8,19.7-35,55.5-35.3,76.7
	c-3.2-2.9-6.3-5.8-8.5-9.5c-13.3-22-29.2-39.9-49.9-50.5l0,0c-11.8-7.5-31.8-9.4-40-9.9h-0.9c-1-0.1-1.8-0.1-2.3-0.1h-0.5
	c-13.2,0-26.1,5-40.7,9.2c5,3.8,7.5,6.6,10.3,7.6c14,5.2,22.3,17.3,29.1,31.3c4.4,9.2,8,18.8,12.5,28c13.1,27.1,32,46.7,58.5,52.1
	l3.1,0.6c7.2,25.9,12.5,52.8,21.9,77.6c9.4,24.9,21.1,48.9,35,71.6l-0.1,0.2c39.7,64.3,94.3,110.2,161.4,140.2
	c44.2,19.8,91,26,137.3,35c11.9,2.3,16.8,8.4,17.3,22.6c1.3,35-12.5,62.7-29.2,89.5c-3.1,5-5.7,10.4-8.6,15.6l3,4.5
	c7.8-3.4,16.1-5.7,23.2-10.4c20.8-13.6,42.1-26.7,61.4-42.9c18.5-15.6,35.8-33.7,51.7-52.9c9.2-11.2,18.6-17.9,31.6-19.5
	c56.7-7.4,112.7-16.7,163-51.7c30.5-21.2,57.1-45.4,73.4-84.2C-114.9,556.5-108.1,513.3-110.7,467.4z M-560.3,527.2
	c-22.3,0-40.3-18.1-40.3-40.3s18.1-40.3,40.3-40.3c22.3,0,40.3,18.1,40.3,40.3v0C-520,509.2-538,527.2-560.3,527.2z M-412.4,527.2
	c-22.3,0-40.3-18.1-40.3-40.3s18.1-40.3,40.3-40.3c22.3,0,40.3,18.1,40.3,40.3v0C-372.1,509.2-390.2,527.2-412.4,527.2L-412.4,527.2
	z M-269.2,527.2c-22.3,0-40.3-18.1-40.3-40.3s18.1-40.3,40.3-40.3c22.3,0,40.3,18.1,40.3,40.3v0
	C-228.9,509.2-246.9,527.2-269.2,527.2L-269.2,527.2z"/>
<g>
	<circle class="st9" cx="489" cy="488" r="486"/>
	<path class="st2" d="M856.4,473.8c-2.6-48-13.7-92.6-39.3-131.2c-30.5-46-71.5-74-117.8-92.8c-41.8-16.9-84.7-19.8-128.7-17.2
		c-64.2,3.9-124.9,20.6-180.6,58.3c-26.8,18.1-50.4,40.6-67.6,71.7c-12.3,22.1-24.9,44.7-40.5,63.5c-12,14.4-26.4,22.9-40.3,22.9
		c-15.4,0-30.1-10.5-40.1-35.1c-2.3-5.7-4.8-11.4-7.3-17c-1.5-6.4,0.7-9.7,8.4-14.7c23-15.1,33.6-44.2,34.2-74.1l0,0
		c0,0,0-0.1,0-0.1c0.1-3.6,0-7.2-0.2-10.8c1.1-21.7,12.7-24,12.7-24c-12.3-4.4-32.7,6.9-32.7,6.9v0.2c-4.9,1.8-9.5,4.2-13.9,7.1
		c-27.9,18.4-32.7,51.8-32.9,71.7c-3.1-2.6-5.8-5.6-8-8.9c-12.4-20.6-27.3-37.3-46.6-47.2l0,0c-11-7-29.7-8.8-37.4-9.2h-0.8
		c-1,0-1.7-0.1-2.1-0.1h-0.5c-12.3,0-24.4,4.7-38,8.6c4.7,3.6,7,6.1,9.7,7.1c13,4.8,20.9,16.1,27.2,29.2c4.1,8.5,7.5,17.6,11.6,26.1
		c12.2,25.3,29.9,43.6,54.7,48.7l2.9,0.6c6.7,24.2,11.7,49.3,20.5,72.5c8.7,23.3,19.7,45.7,32.7,66.9l-0.1,0.2
		c37.1,60.1,88.1,102.9,150.7,130.9c41.3,18.5,85,24.3,128.2,32.7c11.1,2.2,15.7,7.9,16.2,21.1c1.2,32.7-11.7,58.6-27.2,83.6
		c-2.9,4.7-5.4,9.7-8,14.5l2.8,4.2c7.3-3.2,15-5.3,21.7-9.7c19.4-12.7,39.3-24.9,57.4-40.1c17.3-14.5,33.4-31.5,48.2-49.4
		c8.6-10.4,17.4-16.7,29.5-18.3c52.9-6.8,105.3-15.5,152.3-48.2c28.4-19.8,53.3-42.4,68.6-78.6C852.4,557,858.7,516.6,856.4,473.8z
		 M436.4,529.7c-20.8,0-37.7-16.9-37.7-37.7c0-20.8,16.9-37.7,37.7-37.7c20.8,0,37.7,16.9,37.7,37.7c0,0,0,0,0,0
		C474.1,512.8,457.2,529.7,436.4,529.7z M574.5,529.7c-20.8,0-37.7-16.9-37.7-37.7c0-20.8,16.9-37.7,37.7-37.7
		c20.8,0,37.7,16.9,37.7,37.7c0,0,0,0,0,0C612.2,512.8,595.3,529.7,574.5,529.7C574.5,529.7,574.5,529.7,574.5,529.7L574.5,529.7z
		 M708.3,529.7c-20.8,0-37.7-16.9-37.7-37.7c0-20.8,16.9-37.7,37.7-37.7c20.8,0,37.7,16.9,37.7,37.7c0,0,0,0,0,0
		C746,512.8,729.1,529.7,708.3,529.7L708.3,529.7z"/>
</g>
<rect x="-3693.3" y="-846.1" class="st9" width="873.4" height="709"/>
<rect x="-3068.8" y="135.5" class="st10" width="873.4" height="709"/>
</svg>
